<?xml version="1.0" encoding="UTF-8" standalone="no"?><svg xmlns="http://www.w3.org/2000/svg" xmlns:xlink="http://www.w3.org/1999/xlink" clip-rule="evenodd" stroke-miterlimit="4.00" viewBox="0 0 1024 768"><desc>SVG generated by Keynote</desc><defs></defs><g transform="matrix(1.00, 0.00, -0.00, -1.00, 0.0, 768.0)"><path d="M 0.0 768.0 L 1024.0 768.0 L 1024.0 0.0 L 0.0 0.0 Z M 0.0 768.0 " fill="#FEFFFF"></path><text xml:space="preserve" font-family="Helvetica-Light" font-size="80.0" fill="#000000" transform="matrix(1.00, 0.00, -0.00, -1.00, 79.0, 618.0)">L</text><text xml:space="preserve" font-family="Helvetica-Light" font-size="80.0" fill="#000000" transform="matrix(1.00, 0.00, -0.00, -1.00, 123.5, 618.0)">i</text><text xml:space="preserve" font-family="Helvetica-Light" font-size="80.0" fill="#000000" transform="matrix(1.00, 0.00, -0.00, -1.00, 141.2, 618.0)">n</text><text xml:space="preserve" font-family="Helvetica-Light" font-size="80.0" fill="#000000" transform="matrix(1.00, 0.00, -0.00, -1.00, 185.7, 618.0)">k</text><text xml:space="preserve" font-family="Helvetica-Light" font-size="80.0" fill="#000000" transform="matrix(1.00, 0.00, -0.00, -1.00, 225.7, 618.0)">s</text><text xml:space="preserve" font-family="Helvetica-Light" font-size="24.3" fill="#000000" transform="matrix(1.00, 0.00, -0.00, -1.00, 79.0, 524.6)">•</text><text xml:space="preserve" font-family="Helvetica-Light" font-size="32.4" fill="#000000" transform="matrix(1.00, 0.00, -0.00, -1.00, 95.0, 522.0)">W</text><text xml:space="preserve" font-family="Helvetica-Light" font-size="32.4" fill="#000000" transform="matrix(1.00, 0.00, -0.00, -1.00, 123.2, 522.0)">o</text><text xml:space="preserve" font-family="Helvetica-Light" font-size="32.4" fill="#000000" transform="matrix(1.00, 0.00, -0.00, -1.00, 141.2, 522.0)">r</text><text xml:space="preserve" font-family="Helvetica-Light" font-size="32.4" fill="#000000" transform="matrix(1.00, 0.00, -0.00, -1.00, 152.0, 522.0)">k</text><text xml:space="preserve" font-family="Helvetica-Light" font-size="32.4" fill="#000000" transform="matrix(1.00, 0.00, -0.00, -1.00, 168.2, 522.0)">s</text><text xml:space="preserve" font-family="Helvetica-Light" font-size="32.4" fill="#000000" transform="matrix(1.00, 0.00, -0.00, -1.00, 184.4, 522.0)">h</text><text xml:space="preserve" font-family="Helvetica-Light" font-size="32.4" fill="#000000" transform="matrix(1.00, 0.00, -0.00, -1.00, 202.4, 522.0)">o</text><text xml:space="preserve" font-family="Helvetica-Light" font-size="32.4" fill="#000000" transform="matrix(1.00, 0.00, -0.00, -1.00, 220.5, 522.0)">p</text><text xml:space="preserve" font-family="Helvetica-Light" font-size="32.4" fill="#000000" transform="matrix(1.00, 0.00, -0.00, -1.00, 240.2, 522.0)"> </text><text xml:space="preserve" font-family="Helvetica-Light" font-size="32.4" fill="#000000" transform="matrix(1.00, 0.00, -0.00, -1.00, 249.3, 522.0)">s</text><text xml:space="preserve" font-family="Helvetica-Light" font-size="32.4" fill="#000000" transform="matrix(1.00, 0.00, -0.00, -1.00, 265.5, 522.0)">i</text><text xml:space="preserve" font-family="Helvetica-Light" font-size="32.4" fill="#000000" transform="matrix(1.00, 0.00, -0.00, -1.00, 272.6, 522.0)">t</text><text xml:space="preserve" font-family="Helvetica-Light" font-size="32.4" fill="#000000" transform="matrix(1.00, 0.00, -0.00, -1.00, 281.7, 522.0)">e</text><text xml:space="preserve" font-family="Helvetica-Light" font-size="32.4" fill="#000000" transform="matrix(1.00, 0.00, -0.00, -1.00, 299.7, 522.0)"> </text><text xml:space="preserve" font-family="Helvetica-Light" font-size="32.4" fill="#000000" transform="matrix(1.00, 0.00, -0.00, -1.00, 133.0, 466.0)">h</text><text xml:space="preserve" font-family="Helvetica-Light" font-size="32.4" fill="#000000" transform="matrix(1.00, 0.00, -0.00, -1.00, 151.0, 466.0)">t</text><text xml:space="preserve" font-family="Helvetica-Light" font-size="32.4" fill="#000000" transform="matrix(1.00, 0.00, -0.00, -1.00, 160.0, 466.0)">t</text><text xml:space="preserve" font-family="Helvetica-Light" font-size="32.4" fill="#000000" transform="matrix(1.00, 0.00, -0.00, -1.00, 169.0, 466.0)">p</text><text xml:space="preserve" font-family="Helvetica-Light" font-size="32.4" fill="#000000" transform="matrix(1.00, 0.00, -0.00, -1.00, 188.8, 466.0)">:</text><text xml:space="preserve" font-family="Helvetica-Light" font-size="32.4" fill="#000000" transform="matrix(1.00, 0.00, -0.00, -1.00, 197.8, 466.0)">/</text><text xml:space="preserve" font-family="Helvetica-Light" font-size="32.4" fill="#000000" transform="matrix(1.00, 0.00, -0.00, -1.00, 206.8, 466.0)">/</text><text xml:space="preserve" font-family="Helvetica-Light" font-size="32.4" fill="#000000" transform="matrix(1.00, 0.00, -0.00, -1.00, 215.8, 466.0)">i</text><text xml:space="preserve" font-family="Helvetica-Light" font-size="32.4" fill="#000000" transform="matrix(1.00, 0.00, -0.00, -1.00, 223.0, 466.0)">a</text><text xml:space="preserve" font-family="Helvetica-Light" font-size="32.4" fill="#000000" transform="matrix(1.00, 0.00, -0.00, -1.00, 241.1, 466.0)">b</text><text xml:space="preserve" font-family="Helvetica-Light" font-size="32.4" fill="#000000" transform="matrix(1.00, 0.00, -0.00, -1.00, 260.9, 466.0)">.</text><text xml:space="preserve" font-family="Helvetica-Light" font-size="32.4" fill="#000000" transform="matrix(1.00, 0.00, -0.00, -1.00, 269.9, 466.0)">o</text><text xml:space="preserve" font-family="Helvetica-Light" font-size="32.4" fill="#000000" transform="matrix(1.00, 0.00, -0.00, -1.00, 287.9, 466.0)">r</text><text xml:space="preserve" font-family="Helvetica-Light" font-size="32.4" fill="#000000" transform="matrix(1.00, 0.00, -0.00, -1.00, 298.7, 466.0)">g</text><text xml:space="preserve" font-family="Helvetica-Light" font-size="32.4" fill="#000000" transform="matrix(1.00, 0.00, -0.00, -1.00, 318.5, 466.0)">/</text><text xml:space="preserve" font-family="Helvetica-Light" font-size="32.4" fill="#000000" transform="matrix(1.00, 0.00, -0.00, -1.00, 327.5, 466.0)">a</text><text xml:space="preserve" font-family="Helvetica-Light" font-size="32.4" fill="#000000" transform="matrix(1.00, 0.00, -0.00, -1.00, 345.5, 466.0)">c</text><text xml:space="preserve" font-family="Helvetica-Light" font-size="32.4" fill="#000000" transform="matrix(1.00, 0.00, -0.00, -1.00, 363.5, 466.0)">t</text><text xml:space="preserve" font-family="Helvetica-Light" font-size="32.4" fill="#000000" transform="matrix(1.00, 0.00, -0.00, -1.00, 372.5, 466.0)">i</text><text xml:space="preserve" font-family="Helvetica-Light" font-size="32.4" fill="#000000" transform="matrix(1.00, 0.00, -0.00, -1.00, 379.7, 466.0)">v</text><text xml:space="preserve" font-family="Helvetica-Light" font-size="32.4" fill="#000000" transform="matrix(1.00, 0.00, -0.00, -1.00, 395.9, 466.0)">i</text><text xml:space="preserve" font-family="Helvetica-Light" font-size="32.4" fill="#000000" transform="matrix(1.00, 0.00, -0.00, -1.00, 403.1, 466.0)">t</text><text xml:space="preserve" font-family="Helvetica-Light" font-size="32.4" fill="#000000" transform="matrix(1.00, 0.00, -0.00, -1.00, 412.1, 466.0)">i</text><text xml:space="preserve" font-family="Helvetica-Light" font-size="32.4" fill="#000000" transform="matrix(1.00, 0.00, -0.00, -1.00, 419.3, 466.0)">e</text><text xml:space="preserve" font-family="Helvetica-Light" font-size="32.4" fill="#000000" transform="matrix(1.00, 0.00, -0.00, -1.00, 437.3, 466.0)">s</text><text xml:space="preserve" font-family="Helvetica-Light" font-size="32.4" fill="#000000" transform="matrix(1.00, 0.00, -0.00, -1.00, 453.5, 466.0)">/</text><text xml:space="preserve" font-family="Helvetica-Light" font-size="32.4" fill="#000000" transform="matrix(1.00, 0.00, -0.00, -1.00, 462.5, 466.0)">w</text><text xml:space="preserve" font-family="Helvetica-Light" font-size="32.4" fill="#000000" transform="matrix(1.00, 0.00, -0.00, -1.00, 485.9, 466.0)">o</text><text xml:space="preserve" font-family="Helvetica-Light" font-size="32.4" fill="#000000" transform="matrix(1.00, 0.00, -0.00, -1.00, 503.9, 466.0)">r</text><text xml:space="preserve" font-family="Helvetica-Light" font-size="32.4" fill="#000000" transform="matrix(1.00, 0.00, -0.00, -1.00, 514.7, 466.0)">k</text><text xml:space="preserve" font-family="Helvetica-Light" font-size="32.4" fill="#000000" transform="matrix(1.00, 0.00, -0.00, -1.00, 530.9, 466.0)">s</text><text xml:space="preserve" font-family="Helvetica-Light" font-size="32.4" fill="#000000" transform="matrix(1.00, 0.00, -0.00, -1.00, 547.1, 466.0)">h</text><text xml:space="preserve" font-family="Helvetica-Light" font-size="32.4" fill="#000000" transform="matrix(1.00, 0.00, -0.00, -1.00, 565.1, 466.0)">o</text><text xml:space="preserve" font-family="Helvetica-Light" font-size="32.4" fill="#000000" transform="matrix(1.00, 0.00, -0.00, -1.00, 583.1, 466.0)">p</text><text xml:space="preserve" font-family="Helvetica-Light" font-size="32.4" fill="#000000" transform="matrix(1.00, 0.00, -0.00, -1.00, 602.9, 466.0)">s</text><text xml:space="preserve" font-family="Helvetica-Light" font-size="32.4" fill="#000000" transform="matrix(1.00, 0.00, -0.00, -1.00, 619.1, 466.0)">/</text><text xml:space="preserve" font-family="Helvetica-Light" font-size="32.4" fill="#000000" transform="matrix(1.00, 0.00, -0.00, -1.00, 628.1, 466.0)">i</text><text xml:space="preserve" font-family="Helvetica-Light" font-size="32.4" fill="#000000" transform="matrix(1.00, 0.00, -0.00, -1.00, 635.3, 466.0)">o</text><text xml:space="preserve" font-family="Helvetica-Light" font-size="32.4" fill="#000000" transform="matrix(1.00, 0.00, -0.00, -1.00, 653.3, 466.0)">t</text><text xml:space="preserve" font-family="Helvetica-Light" font-size="32.4" fill="#000000" transform="matrix(1.00, 0.00, -0.00, -1.00, 662.4, 466.0)">s</text><text xml:space="preserve" font-family="Helvetica-Light" font-size="32.4" fill="#000000" transform="matrix(1.00, 0.00, -0.00, -1.00, 678.6, 466.0)">i</text><text xml:space="preserve" font-family="Helvetica-Light" font-size="32.4" fill="#000000" transform="matrix(1.00, 0.00, -0.00, -1.00, 685.7, 466.0)">/</text><text xml:space="preserve" font-family="Helvetica-Light" font-size="32.4" fill="#000000" transform="matrix(1.00, 0.00, -0.00, -1.00, 694.8, 466.0)"> </text><text xml:space="preserve" font-family="Helvetica-Light" font-size="32.4" fill="#000000" transform="matrix(1.00, 0.00, -0.00, -1.00, 703.8, 466.0)"> </text><g><clipPath id="clip-159"><path d="M 132.0 461.3 L 694.8 461.3 L 694.8 464.9 L 132.0 464.9 Z M 132.0 461.3 "></path></clipPath><g clip-path="url(#clip-159)"><path d="M 58.0 99.9 L 619.8 99.9 " fill="none" stroke="#000000" stroke-width="1.62" stroke-miterlimit="0.00" transform="matrix(1.00, 0.00, 0.00, -1.00, 75.0, 563.0)"></path></g></g><text xml:space="preserve" font-family="Helvetica-Light" font-size="24.3" fill="#000000" transform="matrix(1.00, 0.00, -0.00, -1.00, 79.0, 410.8)">•</text><text xml:space="preserve" font-family="Helvetica-Light" font-size="32.4" fill="#000000" transform="matrix(1.00, 0.00, -0.00, -1.00, 95.0, 409.0)">R</text><text xml:space="preserve" font-family="Helvetica-Light" font-size="32.4" fill="#000000" transform="matrix(1.00, 0.00, -0.00, -1.00, 116.6, 409.0)">e</text><text xml:space="preserve" font-family="Helvetica-Light" font-size="32.4" fill="#000000" transform="matrix(1.00, 0.00, -0.00, -1.00, 134.6, 409.0)">p</text><text xml:space="preserve" font-family="Helvetica-Light" font-size="32.4" fill="#000000" transform="matrix(1.00, 0.00, -0.00, -1.00, 154.4, 409.0)">o</text><text xml:space="preserve" font-family="Helvetica-Light" font-size="32.4" fill="#000000" transform="matrix(1.00, 0.00, -0.00, -1.00, 172.4, 409.0)">r</text><text xml:space="preserve" font-family="Helvetica-Light" font-size="32.4" fill="#000000" transform="matrix(1.00, 0.00, -0.00, -1.00, 183.8, 409.0)">t</text><text xml:space="preserve" font-family="Helvetica-Light" font-size="32.4" fill="#000000" transform="matrix(1.00, 0.00, -0.00, -1.00, 192.8, 409.0)"> </text><text xml:space="preserve" font-family="Helvetica-Light" font-size="32.4" fill="#000000" transform="matrix(1.00, 0.00, -0.00, -1.00, 201.8, 409.0)">(</text><text xml:space="preserve" font-family="Helvetica-Light" font-size="32.4" fill="#000000" transform="matrix(1.00, 0.00, -0.00, -1.00, 212.6, 409.0)">w</text><text xml:space="preserve" font-family="Helvetica-Light" font-size="32.4" fill="#000000" transform="matrix(1.00, 0.00, -0.00, -1.00, 236.0, 409.0)">o</text><text xml:space="preserve" font-family="Helvetica-Light" font-size="32.4" fill="#000000" transform="matrix(1.00, 0.00, -0.00, -1.00, 254.0, 409.0)">r</text><text xml:space="preserve" font-family="Helvetica-Light" font-size="32.4" fill="#000000" transform="matrix(1.00, 0.00, -0.00, -1.00, 264.8, 409.0)">k</text><text xml:space="preserve" font-family="Helvetica-Light" font-size="32.4" fill="#000000" transform="matrix(1.00, 0.00, -0.00, -1.00, 281.0, 409.0)"> </text><text xml:space="preserve" font-family="Helvetica-Light" font-size="32.4" fill="#000000" transform="matrix(1.00, 0.00, -0.00, -1.00, 290.0, 409.0)">i</text><text xml:space="preserve" font-family="Helvetica-Light" font-size="32.4" fill="#000000" transform="matrix(1.00, 0.00, -0.00, -1.00, 297.2, 409.0)">n</text><text xml:space="preserve" font-family="Helvetica-Light" font-size="32.4" fill="#000000" transform="matrix(1.00, 0.00, -0.00, -1.00, 315.2, 409.0)"> </text><text xml:space="preserve" font-family="Helvetica-Light" font-size="32.4" fill="#000000" transform="matrix(1.00, 0.00, -0.00, -1.00, 324.2, 409.0)">p</text><text xml:space="preserve" font-family="Helvetica-Light" font-size="32.4" fill="#000000" transform="matrix(1.00, 0.00, -0.00, -1.00, 344.0, 409.0)">r</text><text xml:space="preserve" font-family="Helvetica-Light" font-size="32.4" fill="#000000" transform="matrix(1.00, 0.00, -0.00, -1.00, 354.2, 409.0)">o</text><text xml:space="preserve" font-family="Helvetica-Light" font-size="32.4" fill="#000000" transform="matrix(1.00, 0.00, -0.00, -1.00, 372.2, 409.0)">g</text><text xml:space="preserve" font-family="Helvetica-Light" font-size="32.4" fill="#000000" transform="matrix(1.00, 0.00, -0.00, -1.00, 392.0, 409.0)">r</text><text xml:space="preserve" font-family="Helvetica-Light" font-size="32.4" fill="#000000" transform="matrix(1.00, 0.00, -0.00, -1.00, 402.2, 409.0)">e</text><text xml:space="preserve" font-family="Helvetica-Light" font-size="32.4" fill="#000000" transform="matrix(1.00, 0.00, -0.00, -1.00, 420.3, 409.0)">s</text><text xml:space="preserve" font-family="Helvetica-Light" font-size="32.4" fill="#000000" transform="matrix(1.00, 0.00, -0.00, -1.00, 436.5, 409.0)">s</text><text xml:space="preserve" font-family="Helvetica-Light" font-size="32.4" fill="#000000" transform="matrix(1.00, 0.00, -0.00, -1.00, 452.7, 409.0)">)</text><text xml:space="preserve" font-family="Helvetica-Light" font-size="32.4" fill="#000000" transform="matrix(1.00, 0.00, -0.00, -1.00, 463.5, 409.0)"> </text><text xml:space="preserve" font-family="Helvetica-Light" font-size="32.4" fill="#000000" transform="matrix(1.00, 0.00, -0.00, -1.00, 133.0, 352.0)">h</text><text xml:space="preserve" font-family="Helvetica-Light" font-size="32.4" fill="#000000" transform="matrix(1.00, 0.00, -0.00, -1.00, 151.0, 352.0)">t</text><text xml:space="preserve" font-family="Helvetica-Light" font-size="32.4" fill="#000000" transform="matrix(1.00, 0.00, -0.00, -1.00, 160.0, 352.0)">t</text><text xml:space="preserve" font-family="Helvetica-Light" font-size="32.4" fill="#000000" transform="matrix(1.00, 0.00, -0.00, -1.00, 169.0, 352.0)">p</text><text xml:space="preserve" font-family="Helvetica-Light" font-size="32.4" fill="#000000" transform="matrix(1.00, 0.00, -0.00, -1.00, 188.8, 352.0)">:</text><text xml:space="preserve" font-family="Helvetica-Light" font-size="32.4" fill="#000000" transform="matrix(1.00, 0.00, -0.00, -1.00, 197.8, 352.0)">/</text><text xml:space="preserve" font-family="Helvetica-Light" font-size="32.4" fill="#000000" transform="matrix(1.00, 0.00, -0.00, -1.00, 206.8, 352.0)">/</text><text xml:space="preserve" font-family="Helvetica-Light" font-size="32.4" fill="#000000" transform="matrix(1.00, 0.00, -0.00, -1.00, 215.8, 352.0)">d</text><text xml:space="preserve" font-family="Helvetica-Light" font-size="32.4" fill="#000000" transform="matrix(1.00, 0.00, -0.00, -1.00, 235.6, 352.0)">r</text><text xml:space="preserve" font-family="Helvetica-Light" font-size="32.4" fill="#000000" transform="matrix(1.00, 0.00, -0.00, -1.00, 246.4, 352.0)">a</text><text xml:space="preserve" font-family="Helvetica-Light" font-size="32.4" fill="#000000" transform="matrix(1.00, 0.00, -0.00, -1.00, 264.4, 352.0)">f</text><text xml:space="preserve" font-family="Helvetica-Light" font-size="32.4" fill="#000000" transform="matrix(1.00, 0.00, -0.00, -1.00, 273.5, 352.0)">t</text><text xml:space="preserve" font-family="Helvetica-Light" font-size="32.4" fill="#000000" transform="matrix(1.00, 0.00, -0.00, -1.00, 282.5, 352.0)">-</text><text xml:space="preserve" font-family="Helvetica-Light" font-size="32.4" fill="#000000" transform="matrix(1.00, 0.00, -0.00, -1.00, 293.3, 352.0)">i</text><text xml:space="preserve" font-family="Helvetica-Light" font-size="32.4" fill="#000000" transform="matrix(1.00, 0.00, -0.00, -1.00, 300.4, 352.0)">a</text><text xml:space="preserve" font-family="Helvetica-Light" font-size="32.4" fill="#000000" transform="matrix(1.00, 0.00, -0.00, -1.00, 318.5, 352.0)">b</text><text xml:space="preserve" font-family="Helvetica-Light" font-size="32.4" fill="#000000" transform="matrix(1.00, 0.00, -0.00, -1.00, 338.3, 352.0)">-</text><text xml:space="preserve" font-family="Helvetica-Light" font-size="32.4" fill="#000000" transform="matrix(1.00, 0.00, -0.00, -1.00, 349.0, 352.0)">i</text><text xml:space="preserve" font-family="Helvetica-Light" font-size="32.4" fill="#000000" transform="matrix(1.00, 0.00, -0.00, -1.00, 356.2, 352.0)">o</text><text xml:space="preserve" font-family="Helvetica-Light" font-size="32.4" fill="#000000" transform="matrix(1.00, 0.00, -0.00, -1.00, 374.3, 352.0)">t</text><text xml:space="preserve" font-family="Helvetica-Light" font-size="32.4" fill="#000000" transform="matrix(1.00, 0.00, -0.00, -1.00, 383.3, 352.0)">s</text><text xml:space="preserve" font-family="Helvetica-Light" font-size="32.4" fill="#000000" transform="matrix(1.00, 0.00, -0.00, -1.00, 399.5, 352.0)">i</text><text xml:space="preserve" font-family="Helvetica-Light" font-size="32.4" fill="#000000" transform="matrix(1.00, 0.00, -0.00, -1.00, 406.7, 352.0)">-</text><text xml:space="preserve" font-family="Helvetica-Light" font-size="32.4" fill="#000000" transform="matrix(1.00, 0.00, -0.00, -1.00, 417.4, 352.0)">w</text><text xml:space="preserve" font-family="Helvetica-Light" font-size="32.4" fill="#000000" transform="matrix(1.00, 0.00, -0.00, -1.00, 440.8, 352.0)">o</text><text xml:space="preserve" font-family="Helvetica-Light" font-size="32.4" fill="#000000" transform="matrix(1.00, 0.00, -0.00, -1.00, 458.8, 352.0)">r</text><text xml:space="preserve" font-family="Helvetica-Light" font-size="32.4" fill="#000000" transform="matrix(1.00, 0.00, -0.00, -1.00, 469.6, 352.0)">k</text><text xml:space="preserve" font-family="Helvetica-Light" font-size="32.4" fill="#000000" transform="matrix(1.00, 0.00, -0.00, -1.00, 485.8, 352.0)">s</text><text xml:space="preserve" font-family="Helvetica-Light" font-size="32.4" fill="#000000" transform="matrix(1.00, 0.00, -0.00, -1.00, 502.0, 352.0)">h</text><text xml:space="preserve" font-family="Helvetica-Light" font-size="32.4" fill="#000000" transform="matrix(1.00, 0.00, -0.00, -1.00, 520.1, 352.0)">o</text><text xml:space="preserve" font-family="Helvetica-Light" font-size="32.4" fill="#000000" transform="matrix(1.00, 0.00, -0.00, -1.00, 538.1, 352.0)">p</text><text xml:space="preserve" font-family="Helvetica-Light" font-size="32.4" fill="#000000" transform="matrix(1.00, 0.00, -0.00, -1.00, 557.9, 352.0)">-</text><text xml:space="preserve" font-family="Helvetica-Light" font-size="32.4" fill="#000000" transform="matrix(1.00, 0.00, -0.00, -1.00, 568.7, 352.0)">0</text><text xml:space="preserve" font-family="Helvetica-Light" font-size="32.4" fill="#000000" transform="matrix(1.00, 0.00, -0.00, -1.00, 586.7, 352.0)">0</text><text xml:space="preserve" font-family="Helvetica-Light" font-size="32.4" fill="#000000" transform="matrix(1.00, 0.00, -0.00, -1.00, 604.7, 352.0)"> </text><g><clipPath id="clip-160"><path d="M 132.0 347.5 L 604.7 347.5 L 604.7 351.1 L 132.0 351.1 Z M 132.0 347.5 "></path></clipPath><g clip-path="url(#clip-160)"><path d="M 58.0 213.7 L 529.7 213.7 " fill="none" stroke="#000000" stroke-width="1.62" stroke-miterlimit="0.00" transform="matrix(1.00, 0.00, 0.00, -1.00, 75.0, 563.0)"></path></g></g><text xml:space="preserve" font-family="Helvetica-Light" font-size="24.3" fill="#000000" transform="matrix(1.00, 0.00, -0.00, -1.00, 79.0, 297.0)">•</text><text xml:space="preserve" font-family="Helvetica-Light" font-size="32.4" fill="#000000" transform="matrix(1.00, 0.00, -0.00, -1.00, 95.0, 295.0)">M</text><text xml:space="preserve" font-family="Helvetica-Light" font-size="32.4" fill="#000000" transform="matrix(1.00, 0.00, -0.00, -1.00, 122.0, 295.0)">i</text><text xml:space="preserve" font-family="Helvetica-Light" font-size="32.4" fill="#000000" transform="matrix(1.00, 0.00, -0.00, -1.00, 129.2, 295.0)">n</text><text xml:space="preserve" font-family="Helvetica-Light" font-size="32.4" fill="#000000" transform="matrix(1.00, 0.00, -0.00, -1.00, 147.2, 295.0)">u</text><text xml:space="preserve" font-family="Helvetica-Light" font-size="32.4" fill="#000000" transform="matrix(1.00, 0.00, -0.00, -1.00, 165.2, 295.0)">t</text><text xml:space="preserve" font-family="Helvetica-Light" font-size="32.4" fill="#000000" transform="matrix(1.00, 0.00, -0.00, -1.00, 174.2, 295.0)">e</text><text xml:space="preserve" font-family="Helvetica-Light" font-size="32.4" fill="#000000" transform="matrix(1.00, 0.00, -0.00, -1.00, 192.2, 295.0)">s</text><text xml:space="preserve" font-family="Helvetica-Light" font-size="32.4" fill="#000000" transform="matrix(1.00, 0.00, -0.00, -1.00, 208.4, 295.0)"> </text><text xml:space="preserve" font-family="Helvetica-Light" font-size="32.4" fill="#000000" transform="matrix(1.00, 0.00, -0.00, -1.00, 133.0, 238.0)">h</text><text xml:space="preserve" font-family="Helvetica-Light" font-size="32.4" fill="#000000" transform="matrix(1.00, 0.00, -0.00, -1.00, 151.0, 238.0)">t</text><text xml:space="preserve" font-family="Helvetica-Light" font-size="32.4" fill="#000000" transform="matrix(1.00, 0.00, -0.00, -1.00, 160.0, 238.0)">t</text><text xml:space="preserve" font-family="Helvetica-Light" font-size="32.4" fill="#000000" transform="matrix(1.00, 0.00, -0.00, -1.00, 169.0, 238.0)">p</text><text xml:space="preserve" font-family="Helvetica-Light" font-size="32.4" fill="#000000" transform="matrix(1.00, 0.00, -0.00, -1.00, 188.8, 238.0)">s</text><text xml:space="preserve" font-family="Helvetica-Light" font-size="32.4" fill="#000000" transform="matrix(1.00, 0.00, -0.00, -1.00, 205.0, 238.0)">:</text><text xml:space="preserve" font-family="Helvetica-Light" font-size="32.4" fill="#000000" transform="matrix(1.00, 0.00, -0.00, -1.00, 214.0, 238.0)">/</text><text xml:space="preserve" font-family="Helvetica-Light" font-size="32.4" fill="#000000" transform="matrix(1.00, 0.00, -0.00, -1.00, 223.0, 238.0)">/</text><text xml:space="preserve" font-family="Helvetica-Light" font-size="32.4" fill="#000000" transform="matrix(1.00, 0.00, -0.00, -1.00, 232.0, 238.0)">d</text><text xml:space="preserve" font-family="Helvetica-Light" font-size="32.4" fill="#000000" transform="matrix(1.00, 0.00, -0.00, -1.00, 251.8, 238.0)">o</text><text xml:space="preserve" font-family="Helvetica-Light" font-size="32.4" fill="#000000" transform="matrix(1.00, 0.00, -0.00, -1.00, 269.9, 238.0)">c</text><text xml:space="preserve" font-family="Helvetica-Light" font-size="32.4" fill="#000000" transform="matrix(1.00, 0.00, -0.00, -1.00, 287.9, 238.0)">s</text><text xml:space="preserve" font-family="Helvetica-Light" font-size="32.4" fill="#000000" transform="matrix(1.00, 0.00, -0.00, -1.00, 304.1, 238.0)">.</text><text xml:space="preserve" font-family="Helvetica-Light" font-size="32.4" fill="#000000" transform="matrix(1.00, 0.00, -0.00, -1.00, 313.1, 238.0)">g</text><text xml:space="preserve" font-family="Helvetica-Light" font-size="32.4" fill="#000000" transform="matrix(1.00, 0.00, -0.00, -1.00, 332.9, 238.0)">o</text><text xml:space="preserve" font-family="Helvetica-Light" font-size="32.4" fill="#000000" transform="matrix(1.00, 0.00, -0.00, -1.00, 350.9, 238.0)">o</text><text xml:space="preserve" font-family="Helvetica-Light" font-size="32.4" fill="#000000" transform="matrix(1.00, 0.00, -0.00, -1.00, 368.9, 238.0)">g</text><text xml:space="preserve" font-family="Helvetica-Light" font-size="32.4" fill="#000000" transform="matrix(1.00, 0.00, -0.00, -1.00, 388.7, 238.0)">l</text><text xml:space="preserve" font-family="Helvetica-Light" font-size="32.4" fill="#000000" transform="matrix(1.00, 0.00, -0.00, -1.00, 395.9, 238.0)">e</text><text xml:space="preserve" font-family="Helvetica-Light" font-size="32.4" fill="#000000" transform="matrix(1.00, 0.00, -0.00, -1.00, 413.9, 238.0)">.</text><text xml:space="preserve" font-family="Helvetica-Light" font-size="32.4" fill="#000000" transform="matrix(1.00, 0.00, -0.00, -1.00, 422.9, 238.0)">c</text><text xml:space="preserve" font-family="Helvetica-Light" font-size="32.4" fill="#000000" transform="matrix(1.00, 0.00, -0.00, -1.00, 440.9, 238.0)">o</text><text xml:space="preserve" font-family="Helvetica-Light" font-size="32.4" fill="#000000" transform="matrix(1.00, 0.00, -0.00, -1.00, 458.9, 238.0)">m</text><text xml:space="preserve" font-family="Helvetica-Light" font-size="32.4" fill="#000000" transform="matrix(1.00, 0.00, -0.00, -1.00, 485.9, 238.0)">/</text><text xml:space="preserve" font-family="Helvetica-Light" font-size="32.4" fill="#000000" transform="matrix(1.00, 0.00, -0.00, -1.00, 494.9, 238.0)">d</text><text xml:space="preserve" font-family="Helvetica-Light" font-size="32.4" fill="#000000" transform="matrix(1.00, 0.00, -0.00, -1.00, 514.7, 238.0)">o</text><text xml:space="preserve" font-family="Helvetica-Light" font-size="32.4" fill="#000000" transform="matrix(1.00, 0.00, -0.00, -1.00, 532.8, 238.0)">c</text><text xml:space="preserve" font-family="Helvetica-Light" font-size="32.4" fill="#000000" transform="matrix(1.00, 0.00, -0.00, -1.00, 550.8, 238.0)">u</text><text xml:space="preserve" font-family="Helvetica-Light" font-size="32.4" fill="#000000" transform="matrix(1.00, 0.00, -0.00, -1.00, 568.8, 238.0)">m</text><text xml:space="preserve" font-family="Helvetica-Light" font-size="32.4" fill="#000000" transform="matrix(1.00, 0.00, -0.00, -1.00, 595.8, 238.0)">e</text><text xml:space="preserve" font-family="Helvetica-Light" font-size="32.4" fill="#000000" transform="matrix(1.00, 0.00, -0.00, -1.00, 613.8, 238.0)">n</text><text xml:space="preserve" font-family="Helvetica-Light" font-size="32.4" fill="#000000" transform="matrix(1.00, 0.00, -0.00, -1.00, 631.8, 238.0)">t</text><text xml:space="preserve" font-family="Helvetica-Light" font-size="32.4" fill="#000000" transform="matrix(1.00, 0.00, -0.00, -1.00, 640.8, 238.0)">/</text><text xml:space="preserve" font-family="Helvetica-Light" font-size="32.4" fill="#000000" transform="matrix(1.00, 0.00, -0.00, -1.00, 649.8, 238.0)">d</text><text xml:space="preserve" font-family="Helvetica-Light" font-size="32.4" fill="#000000" transform="matrix(1.00, 0.00, -0.00, -1.00, 669.6, 238.0)">/</text><text xml:space="preserve" font-family="Helvetica-Light" font-size="32.4" fill="#000000" transform="matrix(1.00, 0.00, -0.00, -1.00, 678.6, 238.0)">1</text><text xml:space="preserve" font-family="Helvetica-Light" font-size="32.4" fill="#000000" transform="matrix(1.00, 0.00, -0.00, -1.00, 696.6, 238.0)">c</text><text xml:space="preserve" font-family="Helvetica-Light" font-size="32.4" fill="#000000" transform="matrix(1.00, 0.00, -0.00, -1.00, 714.6, 238.0)">H</text><text xml:space="preserve" font-family="Helvetica-Light" font-size="32.4" fill="#000000" transform="matrix(1.00, 0.00, -0.00, -1.00, 738.0, 238.0)">-</text><g><clipPath id="clip-161"><path d="M 132.0 233.7 L 748.8 233.7 L 748.8 237.3 L 132.0 237.3 Z M 132.0 233.7 "></path></clipPath><g clip-path="url(#clip-161)"><path d="M 58.0 327.5 L 673.8 327.5 " fill="none" stroke="#000000" stroke-width="1.62" stroke-miterlimit="0.00" transform="matrix(1.00, 0.00, 0.00, -1.00, 75.0, 563.0)"></path></g></g><text xml:space="preserve" font-family="Helvetica-Light" font-size="32.4" fill="#000000" transform="matrix(1.00, 0.00, -0.00, -1.00, 133.0, 200.0)">L</text><text xml:space="preserve" font-family="Helvetica-Light" font-size="32.4" fill="#000000" transform="matrix(1.00, 0.00, -0.00, -1.00, 151.0, 200.0)">i</text><text xml:space="preserve" font-family="Helvetica-Light" font-size="32.4" fill="#000000" transform="matrix(1.00, 0.00, -0.00, -1.00, 158.2, 200.0)">K</text><text xml:space="preserve" font-family="Helvetica-Light" font-size="32.4" fill="#000000" transform="matrix(1.00, 0.00, -0.00, -1.00, 179.8, 200.0)">F</text><text xml:space="preserve" font-family="Helvetica-Light" font-size="32.4" fill="#000000" transform="matrix(1.00, 0.00, -0.00, -1.00, 197.8, 200.0)">f</text><text xml:space="preserve" font-family="Helvetica-Light" font-size="32.4" fill="#000000" transform="matrix(1.00, 0.00, -0.00, -1.00, 206.8, 200.0)">D</text><text xml:space="preserve" font-family="Helvetica-Light" font-size="32.4" fill="#000000" transform="matrix(1.00, 0.00, -0.00, -1.00, 230.2, 200.0)">1</text><text xml:space="preserve" font-family="Helvetica-Light" font-size="32.4" fill="#000000" transform="matrix(1.00, 0.00, -0.00, -1.00, 248.2, 200.0)">w</text><text xml:space="preserve" font-family="Helvetica-Light" font-size="32.4" fill="#000000" transform="matrix(1.00, 0.00, -0.00, -1.00, 271.6, 200.0)">A</text><text xml:space="preserve" font-family="Helvetica-Light" font-size="32.4" fill="#000000" transform="matrix(1.00, 0.00, -0.00, -1.00, 293.3, 200.0)">N</text><text xml:space="preserve" font-family="Helvetica-Light" font-size="32.4" fill="#000000" transform="matrix(1.00, 0.00, -0.00, -1.00, 316.6, 200.0)">2</text><text xml:space="preserve" font-family="Helvetica-Light" font-size="32.4" fill="#000000" transform="matrix(1.00, 0.00, -0.00, -1.00, 334.7, 200.0)">s</text><text xml:space="preserve" font-family="Helvetica-Light" font-size="32.4" fill="#000000" transform="matrix(1.00, 0.00, -0.00, -1.00, 350.9, 200.0)">F</text><text xml:space="preserve" font-family="Helvetica-Light" font-size="32.4" fill="#000000" transform="matrix(1.00, 0.00, -0.00, -1.00, 368.9, 200.0)">D</text><text xml:space="preserve" font-family="Helvetica-Light" font-size="32.4" fill="#000000" transform="matrix(1.00, 0.00, -0.00, -1.00, 392.3, 200.0)">P</text><text xml:space="preserve" font-family="Helvetica-Light" font-size="32.4" fill="#000000" transform="matrix(1.00, 0.00, -0.00, -1.00, 412.1, 200.0)">W</text><text xml:space="preserve" font-family="Helvetica-Light" font-size="32.4" fill="#000000" transform="matrix(1.00, 0.00, -0.00, -1.00, 440.9, 200.0)">k</text><text xml:space="preserve" font-family="Helvetica-Light" font-size="32.4" fill="#000000" transform="matrix(1.00, 0.00, -0.00, -1.00, 457.1, 200.0)">v</text><text xml:space="preserve" font-family="Helvetica-Light" font-size="32.4" fill="#000000" transform="matrix(1.00, 0.00, -0.00, -1.00, 473.3, 200.0)">N</text><text xml:space="preserve" font-family="Helvetica-Light" font-size="32.4" fill="#000000" transform="matrix(1.00, 0.00, -0.00, -1.00, 496.7, 200.0)">D</text><text xml:space="preserve" font-family="Helvetica-Light" font-size="32.4" fill="#000000" transform="matrix(1.00, 0.00, -0.00, -1.00, 520.1, 200.0)">S</text><text xml:space="preserve" font-family="Helvetica-Light" font-size="32.4" fill="#000000" transform="matrix(1.00, 0.00, -0.00, -1.00, 539.8, 200.0)">w</text><text xml:space="preserve" font-family="Helvetica-Light" font-size="32.4" fill="#000000" transform="matrix(1.00, 0.00, -0.00, -1.00, 563.2, 200.0)">l</text><text xml:space="preserve" font-family="Helvetica-Light" font-size="32.4" fill="#000000" transform="matrix(1.00, 0.00, -0.00, -1.00, 570.4, 200.0)">I</text><text xml:space="preserve" font-family="Helvetica-Light" font-size="32.4" fill="#000000" transform="matrix(1.00, 0.00, -0.00, -1.00, 579.4, 200.0)">X</text><text xml:space="preserve" font-family="Helvetica-Light" font-size="32.4" fill="#000000" transform="matrix(1.00, 0.00, -0.00, -1.00, 599.2, 200.0)">z</text><text xml:space="preserve" font-family="Helvetica-Light" font-size="32.4" fill="#000000" transform="matrix(1.00, 0.00, -0.00, -1.00, 615.4, 200.0)">I</text><text xml:space="preserve" font-family="Helvetica-Light" font-size="32.4" fill="#000000" transform="matrix(1.00, 0.00, -0.00, -1.00, 624.4, 200.0)">2</text><text xml:space="preserve" font-family="Helvetica-Light" font-size="32.4" fill="#000000" transform="matrix(1.00, 0.00, -0.00, -1.00, 642.5, 200.0)">Q</text><text xml:space="preserve" font-family="Helvetica-Light" font-size="32.4" fill="#000000" transform="matrix(1.00, 0.00, -0.00, -1.00, 667.7, 200.0)">T</text><text xml:space="preserve" font-family="Helvetica-Light" font-size="32.4" fill="#000000" transform="matrix(1.00, 0.00, -0.00, -1.00, 683.0, 200.0)">y</text><text xml:space="preserve" font-family="Helvetica-Light" font-size="32.4" fill="#000000" transform="matrix(1.00, 0.00, -0.00, -1.00, 699.2, 200.0)">G</text><text xml:space="preserve" font-family="Helvetica-Light" font-size="32.4" fill="#000000" transform="matrix(1.00, 0.00, -0.00, -1.00, 724.4, 200.0)">P</text><text xml:space="preserve" font-family="Helvetica-Light" font-size="32.4" fill="#000000" transform="matrix(1.00, 0.00, -0.00, -1.00, 744.2, 200.0)">L</text><text xml:space="preserve" font-family="Helvetica-Light" font-size="32.4" fill="#000000" transform="matrix(1.00, 0.00, -0.00, -1.00, 762.2, 200.0)">a</text><text xml:space="preserve" font-family="Helvetica-Light" font-size="32.4" fill="#000000" transform="matrix(1.00, 0.00, -0.00, -1.00, 780.2, 200.0)">H</text><text xml:space="preserve" font-family="Helvetica-Light" font-size="32.4" fill="#000000" transform="matrix(1.00, 0.00, -0.00, -1.00, 803.6, 200.0)">J</text><text xml:space="preserve" font-family="Helvetica-Light" font-size="32.4" fill="#000000" transform="matrix(1.00, 0.00, -0.00, -1.00, 819.8, 200.0)">c</text><text xml:space="preserve" font-family="Helvetica-Light" font-size="32.4" fill="#000000" transform="matrix(1.00, 0.00, -0.00, -1.00, 837.8, 200.0)">Y</text><text xml:space="preserve" font-family="Helvetica-Light" font-size="32.4" fill="#000000" transform="matrix(1.00, 0.00, -0.00, -1.00, 857.6, 200.0)">c</text><text xml:space="preserve" font-family="Helvetica-Light" font-size="32.4" fill="#000000" transform="matrix(1.00, 0.00, -0.00, -1.00, 875.6, 200.0)"> </text><text xml:space="preserve" font-family="Helvetica-Light" font-size="32.4" fill="#000000" transform="matrix(1.00, 0.00, -0.00, -1.00, 884.6, 200.0)"> </text><g><clipPath id="clip-162"><path d="M 132.0 195.7 L 875.6 195.7 L 875.6 199.3 L 132.0 199.3 Z M 132.0 195.7 "></path></clipPath><g clip-path="url(#clip-162)"><path d="M 58.0 365.5 L 800.6 365.5 " fill="none" stroke="#000000" stroke-width="1.62" stroke-miterlimit="0.00" transform="matrix(1.00, 0.00, 0.00, -1.00, 75.0, 563.0)"></path></g></g><text xml:space="preserve" font-family="Helvetica-Light" font-size="24.3" fill="#000000" transform="matrix(1.00, 0.00, -0.00, -1.00, 79.0, 145.2)">•</text><text xml:space="preserve" font-family="Helvetica-Light" font-size="32.4" fill="#000000" transform="matrix(1.00, 0.00, -0.00, -1.00, 95.0, 143.0)">C</text><text xml:space="preserve" font-family="Helvetica-Light" font-size="32.4" fill="#000000" transform="matrix(1.00, 0.00, -0.00, -1.00, 118.4, 143.0)">o</text><text xml:space="preserve" font-family="Helvetica-Light" font-size="32.4" fill="#000000" transform="matrix(1.00, 0.00, -0.00, -1.00, 136.4, 143.0)">R</text><text xml:space="preserve" font-family="Helvetica-Light" font-size="32.4" fill="#000000" transform="matrix(1.00, 0.00, -0.00, -1.00, 158.0, 143.0)">E</text><text xml:space="preserve" font-family="Helvetica-Light" font-size="32.4" fill="#000000" transform="matrix(1.00, 0.00, -0.00, -1.00, 177.8, 143.0)"> </text><text xml:space="preserve" font-family="Helvetica-Light" font-size="32.4" fill="#000000" transform="matrix(1.00, 0.00, -0.00, -1.00, 133.0, 86.0)">h</text><text xml:space="preserve" font-family="Helvetica-Light" font-size="32.4" fill="#000000" transform="matrix(1.00, 0.00, -0.00, -1.00, 151.0, 86.0)">t</text><text xml:space="preserve" font-family="Helvetica-Light" font-size="32.4" fill="#000000" transform="matrix(1.00, 0.00, -0.00, -1.00, 160.0, 86.0)">t</text><text xml:space="preserve" font-family="Helvetica-Light" font-size="32.4" fill="#000000" transform="matrix(1.00, 0.00, -0.00, -1.00, 169.0, 86.0)">p</text><text xml:space="preserve" font-family="Helvetica-Light" font-size="32.4" fill="#000000" transform="matrix(1.00, 0.00, -0.00, -1.00, 188.8, 86.0)">s</text><text xml:space="preserve" font-family="Helvetica-Light" font-size="32.4" fill="#000000" transform="matrix(1.00, 0.00, -0.00, -1.00, 205.0, 86.0)">:</text><text xml:space="preserve" font-family="Helvetica-Light" font-size="32.4" fill="#000000" transform="matrix(1.00, 0.00, -0.00, -1.00, 214.0, 86.0)">/</text><text xml:space="preserve" font-family="Helvetica-Light" font-size="32.4" fill="#000000" transform="matrix(1.00, 0.00, -0.00, -1.00, 223.0, 86.0)">/</text><text xml:space="preserve" font-family="Helvetica-Light" font-size="32.4" fill="#000000" transform="matrix(1.00, 0.00, -0.00, -1.00, 232.0, 86.0)">t</text><text xml:space="preserve" font-family="Helvetica-Light" font-size="32.4" fill="#000000" transform="matrix(1.00, 0.00, -0.00, -1.00, 241.1, 86.0)">o</text><text xml:space="preserve" font-family="Helvetica-Light" font-size="32.4" fill="#000000" transform="matrix(1.00, 0.00, -0.00, -1.00, 259.1, 86.0)">o</text><text xml:space="preserve" font-family="Helvetica-Light" font-size="32.4" fill="#000000" transform="matrix(1.00, 0.00, -0.00, -1.00, 277.1, 86.0)">l</text><text xml:space="preserve" font-family="Helvetica-Light" font-size="32.4" fill="#000000" transform="matrix(1.00, 0.00, -0.00, -1.00, 284.3, 86.0)">s</text><text xml:space="preserve" font-family="Helvetica-Light" font-size="32.4" fill="#000000" transform="matrix(1.00, 0.00, -0.00, -1.00, 300.5, 86.0)">.</text><text xml:space="preserve" font-family="Helvetica-Light" font-size="32.4" fill="#000000" transform="matrix(1.00, 0.00, -0.00, -1.00, 309.5, 86.0)">i</text><text xml:space="preserve" font-family="Helvetica-Light" font-size="32.4" fill="#000000" transform="matrix(1.00, 0.00, -0.00, -1.00, 316.7, 86.0)">e</text><text xml:space="preserve" font-family="Helvetica-Light" font-size="32.4" fill="#000000" transform="matrix(1.00, 0.00, -0.00, -1.00, 334.7, 86.0)">t</text><text xml:space="preserve" font-family="Helvetica-Light" font-size="32.4" fill="#000000" transform="matrix(1.00, 0.00, -0.00, -1.00, 343.7, 86.0)">f</text><text xml:space="preserve" font-family="Helvetica-Light" font-size="32.4" fill="#000000" transform="matrix(1.00, 0.00, -0.00, -1.00, 352.7, 86.0)">.</text><text xml:space="preserve" font-family="Helvetica-Light" font-size="32.4" fill="#000000" transform="matrix(1.00, 0.00, -0.00, -1.00, 361.7, 86.0)">o</text><text xml:space="preserve" font-family="Helvetica-Light" font-size="32.4" fill="#000000" transform="matrix(1.00, 0.00, -0.00, -1.00, 379.7, 86.0)">r</text><text xml:space="preserve" font-family="Helvetica-Light" font-size="32.4" fill="#000000" transform="matrix(1.00, 0.00, -0.00, -1.00, 390.5, 86.0)">g</text><text xml:space="preserve" font-family="Helvetica-Light" font-size="32.4" fill="#000000" transform="matrix(1.00, 0.00, -0.00, -1.00, 410.3, 86.0)">/</text><text xml:space="preserve" font-family="Helvetica-Light" font-size="32.4" fill="#000000" transform="matrix(1.00, 0.00, -0.00, -1.00, 419.3, 86.0)">w</text><text xml:space="preserve" font-family="Helvetica-Light" font-size="32.4" fill="#000000" transform="matrix(1.00, 0.00, -0.00, -1.00, 442.7, 86.0)">g</text><text xml:space="preserve" font-family="Helvetica-Light" font-size="32.4" fill="#000000" transform="matrix(1.00, 0.00, -0.00, -1.00, 462.5, 86.0)">/</text><text xml:space="preserve" font-family="Helvetica-Light" font-size="32.4" fill="#000000" transform="matrix(1.00, 0.00, -0.00, -1.00, 471.5, 86.0)">c</text><text xml:space="preserve" font-family="Helvetica-Light" font-size="32.4" fill="#000000" transform="matrix(1.00, 0.00, -0.00, -1.00, 489.5, 86.0)">o</text><text xml:space="preserve" font-family="Helvetica-Light" font-size="32.4" fill="#000000" transform="matrix(1.00, 0.00, -0.00, -1.00, 507.5, 86.0)">r</text><text xml:space="preserve" font-family="Helvetica-Light" font-size="32.4" fill="#000000" transform="matrix(1.00, 0.00, -0.00, -1.00, 517.8, 86.0)">e</text><text xml:space="preserve" font-family="Helvetica-Light" font-size="32.4" fill="#000000" transform="matrix(1.00, 0.00, -0.00, -1.00, 535.8, 86.0)">/</text><text xml:space="preserve" font-family="Helvetica-Light" font-size="32.4" fill="#000000" transform="matrix(1.00, 0.00, -0.00, -1.00, 544.8, 86.0)"> </text><g><clipPath id="clip-163"><path d="M 132.0 81.9 L 544.8 81.9 L 544.8 85.5 L 132.0 85.5 Z M 132.0 81.9 "></path></clipPath><g clip-path="url(#clip-163)"><path d="M 58.0 479.3 L 469.8 479.3 " fill="none" stroke="#000000" stroke-width="1.62" stroke-miterlimit="0.00" transform="matrix(1.00, 0.00, 0.00, -1.00, 75.0, 563.0)"></path></g></g><image xlink:href="../../7515482B-602A-44A9-A0E8-069F3BD93CE1/assets/00F5575BA74609780BD57EA9C99396A2.png" width="231.00" height="126.00" transform="matrix(0.81, 0.00, -0.00, -0.79, 796.0, 730.0)"></image></g></svg>