<?xml version="1.0" encoding="UTF-8" standalone="no"?><svg xmlns="http://www.w3.org/2000/svg" xmlns:xlink="http://www.w3.org/1999/xlink" clip-rule="evenodd" stroke-miterlimit="4.00" viewBox="0 0 1024 768"><desc>SVG generated by Keynote</desc><defs></defs><g transform="matrix(1.00, 0.00, -0.00, -1.00, 0.0, 768.0)"><path d="M 0.0 768.0 L 1024.0 768.0 L 1024.0 0.0 L 0.0 0.0 Z M 0.0 768.0 " fill="#FEFFFF"></path><text xml:space="preserve" font-family="Helvetica-Light" font-size="66.0" fill="#000000" transform="matrix(1.00, 0.00, -0.00, -1.00, 359.0, 525.0)">T</text><text xml:space="preserve" font-family="Helvetica-Light" font-size="66.0" fill="#000000" transform="matrix(1.00, 0.00, -0.00, -1.00, 395.7, 525.0)">h</text><text xml:space="preserve" font-family="Helvetica-Light" font-size="66.0" fill="#000000" transform="matrix(1.00, 0.00, -0.00, -1.00, 432.4, 525.0)">a</text><text xml:space="preserve" font-family="Helvetica-Light" font-size="66.0" fill="#000000" transform="matrix(1.00, 0.00, -0.00, -1.00, 469.1, 525.0)">n</text><text xml:space="preserve" font-family="Helvetica-Light" font-size="66.0" fill="#000000" transform="matrix(1.00, 0.00, -0.00, -1.00, 505.8, 525.0)">k</text><text xml:space="preserve" font-family="Helvetica-Light" font-size="66.0" fill="#000000" transform="matrix(1.00, 0.00, -0.00, -1.00, 538.8, 525.0)"> </text><text xml:space="preserve" font-family="Helvetica-Light" font-size="66.0" fill="#000000" transform="matrix(1.00, 0.00, -0.00, -1.00, 557.1, 525.0)">Y</text><text xml:space="preserve" font-family="Helvetica-Light" font-size="66.0" fill="#000000" transform="matrix(1.00, 0.00, -0.00, -1.00, 591.4, 525.0)">o</text><text xml:space="preserve" font-family="Helvetica-Light" font-size="66.0" fill="#000000" transform="matrix(1.00, 0.00, -0.00, -1.00, 628.1, 525.0)">u</text><text xml:space="preserve" font-family="Helvetica-Light" font-size="31.0" fill="#000000" transform="matrix(1.00, 0.00, -0.00, -1.00, 56.0, 136.0)">j</text><text xml:space="preserve" font-family="Helvetica-Light" font-size="31.0" fill="#000000" transform="matrix(1.00, 0.00, -0.00, -1.00, 62.9, 136.0)">a</text><text xml:space="preserve" font-family="Helvetica-Light" font-size="31.0" fill="#000000" transform="matrix(1.00, 0.00, -0.00, -1.00, 80.1, 136.0)">i</text><text xml:space="preserve" font-family="Helvetica-Light" font-size="31.0" fill="#000000" transform="matrix(1.00, 0.00, -0.00, -1.00, 87.0, 136.0)">m</text><text xml:space="preserve" font-family="Helvetica-Light" font-size="31.0" fill="#000000" transform="matrix(1.00, 0.00, -0.00, -1.00, 112.8, 136.0)">e</text><text xml:space="preserve" font-family="Helvetica-Light" font-size="31.0" fill="#000000" transform="matrix(1.00, 0.00, -0.00, -1.00, 130.1, 136.0)">.</text><text xml:space="preserve" font-family="Helvetica-Light" font-size="31.0" fill="#000000" transform="matrix(1.00, 0.00, -0.00, -1.00, 138.7, 136.0)">j</text><text xml:space="preserve" font-family="Helvetica-Light" font-size="31.0" fill="#000000" transform="matrix(1.00, 0.00, -0.00, -1.00, 145.6, 136.0)">i</text><text xml:space="preserve" font-family="Helvetica-Light" font-size="31.0" fill="#000000" transform="matrix(1.00, 0.00, -0.00, -1.00, 152.4, 136.0)">m</text><text xml:space="preserve" font-family="Helvetica-Light" font-size="31.0" fill="#000000" transform="matrix(1.00, 0.00, -0.00, -1.00, 178.3, 136.0)">e</text><text xml:space="preserve" font-family="Helvetica-Light" font-size="31.0" fill="#000000" transform="matrix(1.00, 0.00, -0.00, -1.00, 195.5, 136.0)">n</text><text xml:space="preserve" font-family="Helvetica-Light" font-size="31.0" fill="#000000" transform="matrix(1.00, 0.00, -0.00, -1.00, 212.7, 136.0)">e</text><text xml:space="preserve" font-family="Helvetica-Light" font-size="31.0" fill="#000000" transform="matrix(1.00, 0.00, -0.00, -1.00, 230.0, 136.0)">z</text><text xml:space="preserve" font-family="Helvetica-Light" font-size="31.0" fill="#000000" transform="matrix(1.00, 0.00, -0.00, -1.00, 245.5, 136.0)">@</text><text xml:space="preserve" font-family="Helvetica-Light" font-size="31.0" fill="#000000" transform="matrix(1.00, 0.00, -0.00, -1.00, 270.3, 136.0)">e</text><text xml:space="preserve" font-family="Helvetica-Light" font-size="31.0" fill="#000000" transform="matrix(1.00, 0.00, -0.00, -1.00, 287.5, 136.0)">r</text><text xml:space="preserve" font-family="Helvetica-Light" font-size="31.0" fill="#000000" transform="matrix(1.00, 0.00, -0.00, -1.00, 297.8, 136.0)">i</text><text xml:space="preserve" font-family="Helvetica-Light" font-size="31.0" fill="#000000" transform="matrix(1.00, 0.00, -0.00, -1.00, 304.7, 136.0)">c</text><text xml:space="preserve" font-family="Helvetica-Light" font-size="31.0" fill="#000000" transform="matrix(1.00, 0.00, -0.00, -1.00, 321.9, 136.0)">s</text><text xml:space="preserve" font-family="Helvetica-Light" font-size="31.0" fill="#000000" transform="matrix(1.00, 0.00, -0.00, -1.00, 337.4, 136.0)">s</text><text xml:space="preserve" font-family="Helvetica-Light" font-size="31.0" fill="#000000" transform="matrix(1.00, 0.00, -0.00, -1.00, 352.9, 136.0)">o</text><text xml:space="preserve" font-family="Helvetica-Light" font-size="31.0" fill="#000000" transform="matrix(1.00, 0.00, -0.00, -1.00, 370.2, 136.0)">n</text><text xml:space="preserve" font-family="Helvetica-Light" font-size="31.0" fill="#000000" transform="matrix(1.00, 0.00, -0.00, -1.00, 387.4, 136.0)">.</text><text xml:space="preserve" font-family="Helvetica-Light" font-size="31.0" fill="#000000" transform="matrix(1.00, 0.00, -0.00, -1.00, 396.0, 136.0)">c</text><text xml:space="preserve" font-family="Helvetica-Light" font-size="31.0" fill="#000000" transform="matrix(1.00, 0.00, -0.00, -1.00, 413.3, 136.0)">o</text><text xml:space="preserve" font-family="Helvetica-Light" font-size="31.0" fill="#000000" transform="matrix(1.00, 0.00, -0.00, -1.00, 430.5, 136.0)">m</text><text xml:space="preserve" font-family="Helvetica-Light" font-size="31.0" fill="#000000" transform="matrix(1.00, 0.00, -0.00, -1.00, 456.3, 136.0)"> </text><text xml:space="preserve" font-family="Helvetica-Light" font-size="31.0" fill="#000000" transform="matrix(1.00, 0.00, -0.00, -1.00, 465.0, 136.0)"> </text><text xml:space="preserve" font-family="Helvetica-Light" font-size="31.0" fill="#000000" transform="matrix(1.00, 0.00, -0.00, -1.00, 473.6, 136.0)"> </text><text xml:space="preserve" font-family="Helvetica-Light" font-size="31.0" fill="#000000" transform="matrix(1.00, 0.00, -0.00, -1.00, 482.2, 136.0)"> </text><text xml:space="preserve" font-family="Helvetica-Light" font-size="31.0" fill="#000000" transform="matrix(1.00, 0.00, -0.00, -1.00, 490.8, 136.0)"> </text><text xml:space="preserve" font-family="Helvetica-Light" font-size="31.0" fill="#000000" transform="matrix(1.00, 0.00, -0.00, -1.00, 499.4, 136.0)"> </text><text xml:space="preserve" font-family="Helvetica-Light" font-size="31.0" fill="#000000" transform="matrix(1.00, 0.00, -0.00, -1.00, 508.0, 136.0)">@</text><text xml:space="preserve" font-family="Helvetica-Light" font-size="31.0" fill="#000000" transform="matrix(1.00, 0.00, -0.00, -1.00, 532.8, 136.0)">j</text><text xml:space="preserve" font-family="Helvetica-Light" font-size="31.0" fill="#000000" transform="matrix(1.00, 0.00, -0.00, -1.00, 539.7, 136.0)">a</text><text xml:space="preserve" font-family="Helvetica-Light" font-size="31.0" fill="#000000" transform="matrix(1.00, 0.00, -0.00, -1.00, 557.0, 136.0)">i</text><text xml:space="preserve" font-family="Helvetica-Light" font-size="31.0" fill="#000000" transform="matrix(1.00, 0.00, -0.00, -1.00, 563.8, 136.0)">m</text><text xml:space="preserve" font-family="Helvetica-Light" font-size="31.0" fill="#000000" transform="matrix(1.00, 0.00, -0.00, -1.00, 589.7, 136.0)"> </text><text xml:space="preserve" font-family="Helvetica-Light" font-size="31.0" fill="#000000" transform="matrix(1.00, 0.00, -0.00, -1.00, 598.3, 136.0)"> </text><text xml:space="preserve" font-family="Helvetica-Light" font-size="31.0" fill="#000000" transform="matrix(1.00, 0.00, -0.00, -1.00, 606.9, 136.0)"> </text><text xml:space="preserve" font-family="Helvetica-Light" font-size="31.0" fill="#000000" transform="matrix(1.00, 0.00, -0.00, -1.00, 615.5, 136.0)">h</text><text xml:space="preserve" font-family="Helvetica-Light" font-size="31.0" fill="#000000" transform="matrix(1.00, 0.00, -0.00, -1.00, 632.8, 136.0)">t</text><text xml:space="preserve" font-family="Helvetica-Light" font-size="31.0" fill="#000000" transform="matrix(1.00, 0.00, -0.00, -1.00, 641.4, 136.0)">t</text><text xml:space="preserve" font-family="Helvetica-Light" font-size="31.0" fill="#000000" transform="matrix(1.00, 0.00, -0.00, -1.00, 650.0, 136.0)">p</text><text xml:space="preserve" font-family="Helvetica-Light" font-size="31.0" fill="#000000" transform="matrix(1.00, 0.00, -0.00, -1.00, 668.9, 136.0)">:</text><text xml:space="preserve" font-family="Helvetica-Light" font-size="31.0" fill="#000000" transform="matrix(1.00, 0.00, -0.00, -1.00, 677.6, 136.0)">/</text><text xml:space="preserve" font-family="Helvetica-Light" font-size="31.0" fill="#000000" transform="matrix(1.00, 0.00, -0.00, -1.00, 686.2, 136.0)">/</text><text xml:space="preserve" font-family="Helvetica-Light" font-size="31.0" fill="#000000" transform="matrix(1.00, 0.00, -0.00, -1.00, 694.8, 136.0)">j</text><text xml:space="preserve" font-family="Helvetica-Light" font-size="31.0" fill="#000000" transform="matrix(1.00, 0.00, -0.00, -1.00, 701.7, 136.0)">a</text><text xml:space="preserve" font-family="Helvetica-Light" font-size="31.0" fill="#000000" transform="matrix(1.00, 0.00, -0.00, -1.00, 718.9, 136.0)">i</text><text xml:space="preserve" font-family="Helvetica-Light" font-size="31.0" fill="#000000" transform="matrix(1.00, 0.00, -0.00, -1.00, 725.8, 136.0)">m</text><text xml:space="preserve" font-family="Helvetica-Light" font-size="31.0" fill="#000000" transform="matrix(1.00, 0.00, -0.00, -1.00, 751.6, 136.0)">e</text><text xml:space="preserve" font-family="Helvetica-Light" font-size="31.0" fill="#000000" transform="matrix(1.00, 0.00, -0.00, -1.00, 768.8, 136.0)">j</text><text xml:space="preserve" font-family="Helvetica-Light" font-size="31.0" fill="#000000" transform="matrix(1.00, 0.00, -0.00, -1.00, 775.7, 136.0)">i</text><text xml:space="preserve" font-family="Helvetica-Light" font-size="31.0" fill="#000000" transform="matrix(1.00, 0.00, -0.00, -1.00, 782.6, 136.0)">m</text><text xml:space="preserve" font-family="Helvetica-Light" font-size="31.0" fill="#000000" transform="matrix(1.00, 0.00, -0.00, -1.00, 808.4, 136.0)">.</text><text xml:space="preserve" font-family="Helvetica-Light" font-size="31.0" fill="#000000" transform="matrix(1.00, 0.00, -0.00, -1.00, 817.1, 136.0)">g</text><text xml:space="preserve" font-family="Helvetica-Light" font-size="31.0" fill="#000000" transform="matrix(1.00, 0.00, -0.00, -1.00, 836.0, 136.0)">i</text><text xml:space="preserve" font-family="Helvetica-Light" font-size="31.0" fill="#000000" transform="matrix(1.00, 0.00, -0.00, -1.00, 842.9, 136.0)">t</text><text xml:space="preserve" font-family="Helvetica-Light" font-size="31.0" fill="#000000" transform="matrix(1.00, 0.00, -0.00, -1.00, 851.5, 136.0)">h</text><text xml:space="preserve" font-family="Helvetica-Light" font-size="31.0" fill="#000000" transform="matrix(1.00, 0.00, -0.00, -1.00, 868.7, 136.0)">u</text><text xml:space="preserve" font-family="Helvetica-Light" font-size="31.0" fill="#000000" transform="matrix(1.00, 0.00, -0.00, -1.00, 886.0, 136.0)">b</text><text xml:space="preserve" font-family="Helvetica-Light" font-size="31.0" fill="#000000" transform="matrix(1.00, 0.00, -0.00, -1.00, 904.9, 136.0)">.</text><text xml:space="preserve" font-family="Helvetica-Light" font-size="31.0" fill="#000000" transform="matrix(1.00, 0.00, -0.00, -1.00, 913.5, 136.0)">i</text><text xml:space="preserve" font-family="Helvetica-Light" font-size="31.0" fill="#000000" transform="matrix(1.00, 0.00, -0.00, -1.00, 920.4, 136.0)">o</text><g><clipPath id="clip-170"><path d="M 54.8 132.1 L 456.1 132.1 L 456.1 135.7 L 54.8 135.7 Z M 54.8 132.1 "></path></clipPath><g clip-path="url(#clip-170)"><path d="M 4.0 118.2 L 404.3 118.2 " fill="none" stroke="#000000" stroke-width="1.55" stroke-miterlimit="0.00" transform="matrix(1.00, 0.00, 0.00, -1.00, 51.8, 252.1)"></path></g></g><g><clipPath id="clip-171"><path d="M 614.3 132.1 L 937.4 132.1 L 937.4 135.7 L 614.3 135.7 Z M 614.3 132.1 "></path></clipPath><g clip-path="url(#clip-171)"><path d="M 563.5 118.2 L 885.6 118.2 " fill="none" stroke="#000000" stroke-width="1.55" stroke-miterlimit="0.00" transform="matrix(1.00, 0.00, 0.00, -1.00, 51.8, 252.1)"></path></g></g><image xlink:href="../../01910AB0-FBE9-4C96-95BE-E044F4E1C78E/assets/4C0AFAF20B6FB6C56721798238C7B3E1.png" width="35.00" height="35.00" transform="matrix(1.34, 0.00, -0.00, -1.34, 470.0, 171.0)"></image><g><clipPath id="clip-172"><path d="M 266.0 357.0 L 463.0 357.0 L 463.0 462.0 L 266.0 462.0 Z M 266.0 357.0 "></path></clipPath><g clip-path="url(#clip-172)"><path d="M 266.0 462.0 L 463.0 462.0 L 463.0 357.0 L 266.0 357.0 Z M 266.0 462.0 " fill="#FEFFFF" fill-opacity="0.00"></path></g></g><g><clipPath id="clip-173"><path d="M 267.4 461.5 L 462.1 461.5 L 462.1 358.1 L 267.4 358.1 Z M 267.4 461.5 "></path></clipPath><g clip-path="url(#clip-173)"><g><clipPath id="clip-174"><path d="M 267.4 358.1 L 462.1 358.1 L 462.1 461.5 L 267.4 461.5 Z M 267.4 358.1 "></path></clipPath><g clip-path="url(#clip-174)"><image xlink:href="../../FD03472B-602A-44A9-A0E8-069F3BD93CE1/assets/DC57A272D8173069EC3D2BF6CC6CF669.png" width="2121.00" height="1125.00" transform="matrix(0.09, 0.00, -0.00, -0.09, 267.4, 461.5)"></image></g></g></g></g><g><clipPath id="clip-175"><path d="M 590.0 361.0 L 725.0 361.0 L 725.0 480.0 L 590.0 480.0 Z M 590.0 361.0 "></path></clipPath><g clip-path="url(#clip-175)"><path d="M 638.5 448.4 C 634.3 446.9 629.8 449.1 628.2 453.1 C 626.8 457.4 629.0 461.9 633.0 463.4 C 676.8 479.5 676.8 479.5 676.8 479.5 C 681.0 481.0 685.5 479.0 687.0 474.7 C 688.5 470.7 686.5 466.2 682.3 464.7 L 638.5 448.4 Z M 638.5 448.4 " fill="#00285E"></path><path d="M 638.5 424.5 C 634.3 423.0 629.8 425.3 628.2 429.3 C 626.8 433.6 629.0 438.1 633.0 439.6 C 676.8 455.6 676.8 455.6 676.8 455.6 C 681.0 457.1 685.5 455.1 687.0 450.9 C 688.5 446.9 686.5 442.3 682.3 440.8 L 638.5 424.5 Z M 638.5 424.5 " fill="#00285E"></path><path d="M 638.5 400.7 C 634.3 399.2 629.8 401.4 628.2 405.4 C 626.8 409.7 629.0 414.2 633.0 415.7 C 676.8 431.8 676.8 431.8 676.8 431.8 C 681.0 433.3 685.5 431.3 687.0 427.0 C 688.5 423.0 686.5 418.5 682.3 417.0 L 638.5 400.7 Z M 638.5 400.7 " fill="#00285E"></path><path d="M 590.2 380.8 L 604.8 380.8 L 604.8 376.8 L 595.3 376.8 L 595.3 373.6 L 604.5 373.6 L 604.5 369.3 L 595.3 369.3 L 595.3 365.8 L 605.0 365.8 L 605.0 361.5 L 590.2 361.5 L 590.2 380.8 L 590.2 380.8 Z M 590.2 380.8 " fill="#00285E"></path><path d="M 627.8 380.8 L 633.0 380.8 L 633.0 361.5 L 627.8 361.5 L 627.8 380.8 L 627.8 380.8 Z M 627.8 380.8 " fill="#00285E"></path><path d="M 652.0 380.3 C 651.8 376.3 651.8 376.3 651.8 376.3 C 647.5 378.6 641.0 377.8 641.0 371.5 C 640.8 365.0 647.5 364.0 652.0 366.3 C 652.3 362.0 652.3 362.0 652.3 362.0 C 644.5 359.8 635.5 362.0 635.5 371.5 C 635.5 380.6 644.8 383.1 652.0 380.3 Z M 652.0 380.3 " fill="#00285E"></path><path d="M 667.5 380.6 C 667.3 376.6 667.3 376.6 667.3 376.6 C 664.5 378.1 659.5 378.1 659.5 375.8 C 659.5 372.3 668.5 374.8 668.5 367.5 C 668.5 360.5 660.0 360.3 654.5 362.0 C 654.8 366.3 654.8 366.3 654.8 366.3 C 658.2 364.8 663.3 364.3 663.3 367.0 C 663.3 370.3 654.2 368.5 654.2 375.3 C 654.2 381.1 661.3 382.6 667.5 380.6 Z M 667.5 380.6 " fill="#00285E"></path><path d="M 683.3 380.6 C 683.0 376.6 683.0 376.6 683.0 376.6 C 680.3 378.1 675.3 378.1 675.3 375.8 C 675.3 372.3 684.2 374.8 684.2 367.5 C 684.2 360.5 675.8 360.3 670.3 362.0 C 670.5 366.3 670.5 366.3 670.5 366.3 C 674.0 364.8 679.0 364.3 679.0 367.0 C 679.0 370.3 670.0 368.5 670.0 375.3 C 670.0 381.1 677.0 382.6 683.3 380.6 Z M 683.3 380.6 " fill="#00285E"></path><path d="M 707.5 380.8 L 714.0 380.8 L 720.3 368.5 L 720.3 380.8 L 725.3 380.8 L 725.3 361.5 L 719.0 361.5 L 712.3 374.3 L 712.3 361.5 L 707.5 361.5 L 707.5 380.8 L 707.5 380.8 Z M 707.5 380.8 " fill="#00285E"></path><path d="M 695.3 381.3 C 700.8 381.3 705.0 378.3 705.0 371.3 C 705.0 364.5 700.8 361.2 695.3 361.2 C 690.0 361.2 685.8 364.5 685.8 371.3 C 685.8 378.3 690.0 381.3 695.3 381.3 Z M 691.3 371.3 C 691.3 368.3 692.5 365.0 695.3 365.0 C 698.3 365.0 699.5 368.3 699.5 371.3 C 699.5 373.8 698.3 377.6 695.3 377.6 C 692.5 377.6 691.3 374.3 691.3 371.3 Z M 691.3 371.3 " fill="#00285E"></path><path d="M 613.8 372.8 C 616.5 372.8 616.5 372.8 616.5 372.8 C 617.8 372.8 619.0 373.6 619.0 375.1 C 619.0 376.3 618.0 377.1 616.5 377.1 C 613.8 377.1 613.8 377.1 613.8 377.1 C 613.8 372.8 613.8 372.8 613.8 372.8 Z M 608.8 380.8 C 618.0 380.8 618.0 380.8 618.0 380.8 C 620.7 380.8 624.2 379.8 624.2 375.8 C 624.2 373.3 623.0 371.8 620.7 371.0 C 621.0 371.0 622.0 370.5 622.5 369.3 C 622.5 369.0 625.3 361.7 625.3 361.5 C 619.8 361.5 619.8 361.5 619.8 361.5 C 617.8 367.5 617.8 367.5 617.8 367.5 C 617.5 368.3 616.7 368.8 616.0 368.8 C 615.0 368.8 613.8 369.0 613.8 368.8 C 613.8 361.5 613.8 361.5 613.8 361.5 C 608.8 361.5 608.8 361.5 608.8 361.5 C 608.8 380.8 608.8 380.8 608.8 380.8 Z M 608.8 380.8 " fill="#00285E"></path></g></g></g></svg>