<?xml version="1.0" encoding="UTF-8" standalone="no"?><svg xmlns="http://www.w3.org/2000/svg" xmlns:xlink="http://www.w3.org/1999/xlink" clip-rule="evenodd" stroke-miterlimit="4.00" viewBox="0 0 1024 768"><desc>SVG generated by Keynote</desc><defs></defs><g transform="matrix(1.00, 0.00, -0.00, -1.00, 0.0, 768.0)"><path d="M 0.0 768.0 L 1024.0 768.0 L 1024.0 0.0 L 0.0 0.0 Z M 0.0 768.0 " fill="#FEFFFF"></path><g><clipPath id="clip-68"><path d="M 61.0 688.0 L 731.8 688.0 L 731.8 381.5 L 61.0 381.5 Z M 61.0 688.0 "></path></clipPath><g clip-path="url(#clip-68)"><path d="M 61.0 688.0 L 158.5 688.0 L 158.5 586.3 L 61.0 586.3 Z M 61.0 688.0 " fill="#FEFFFF"></path><path d="M 158.5 688.0 L 280.0 688.0 L 280.0 586.3 L 158.5 586.3 Z M 158.5 688.0 " fill="#FEFFFF"></path><path d="M 280.0 688.0 L 362.2 688.0 L 362.2 586.3 L 280.0 586.3 Z M 280.0 688.0 " fill="#FEFFFF"></path><path d="M 362.2 688.0 L 511.6 688.0 L 511.6 586.3 L 362.2 586.3 Z M 362.2 688.0 " fill="#FEFFFF"></path><path d="M 511.6 688.0 L 639.4 688.0 L 639.4 586.3 L 511.6 586.3 Z M 511.6 688.0 " fill="#FEFFFF"></path><path d="M 639.4 688.0 L 731.8 688.0 L 731.8 586.3 L 639.4 586.3 Z M 639.4 688.0 " fill="#FEFFFF"></path><path d="M 61.0 586.3 L 158.5 586.3 L 158.5 483.1 L 61.0 483.1 Z M 61.0 586.3 " fill="#FEFFFF"></path><path d="M 158.5 586.3 L 280.0 586.3 L 280.0 483.1 L 158.5 483.1 Z M 158.5 586.3 " fill="#FEFFFF"></path><path d="M 280.0 586.3 L 362.2 586.3 L 362.2 483.1 L 280.0 483.1 Z M 280.0 586.3 " fill="#FEFFFF"></path><path d="M 362.2 586.3 L 511.6 586.3 L 511.6 483.1 L 362.2 483.1 Z M 362.2 586.3 " fill="#FEFFFF"></path><path d="M 511.6 586.3 L 639.4 586.3 L 639.4 483.1 L 511.6 483.1 Z M 511.6 586.3 " fill="#FEFFFF"></path><path d="M 639.4 586.3 L 731.8 586.3 L 731.8 483.1 L 639.4 483.1 Z M 639.4 586.3 " fill="#FEFFFF"></path><path d="M 61.0 483.1 L 158.5 483.1 L 158.5 381.5 L 61.0 381.5 Z M 61.0 483.1 " fill="#FEFFFF"></path><path d="M 158.5 483.1 L 280.0 483.1 L 280.0 381.5 L 158.5 381.5 Z M 158.5 483.1 " fill="#FEFFFF"></path><path d="M 280.0 483.1 L 362.2 483.1 L 362.2 381.5 L 280.0 381.5 Z M 280.0 483.1 " fill="#FEFFFF"></path><path d="M 362.2 483.1 L 511.6 483.1 L 511.6 381.5 L 362.2 381.5 Z M 362.2 483.1 " fill="#FEFFFF"></path><path d="M 511.6 483.1 L 639.4 483.1 L 639.4 381.5 L 511.6 381.5 Z M 511.6 483.1 " fill="#FEFFFF"></path><path d="M 639.4 483.1 L 731.8 483.1 L 731.8 381.5 L 639.4 381.5 Z M 639.4 483.1 " fill="#FEFFFF"></path></g></g><g><clipPath id="clip-69"><path d="M 61.0 688.0 L 731.8 688.0 L 731.8 381.5 L 61.0 381.5 Z M 61.0 688.0 "></path></clipPath><g clip-path="url(#clip-69)"><g><clipPath id="clip-70"><path d="M 61.0 586.8 L 158.0 586.8 L 158.0 688.0 L 61.0 688.0 Z M 61.0 586.8 "></path></clipPath><g clip-path="url(#clip-70)"><text xml:space="preserve" font-family="Helvetica-Light" font-size="25.0" fill="#000000" transform="matrix(1.00, 0.00, -0.00, -1.00, 67.0, 628.0)">A</text><text xml:space="preserve" font-family="Helvetica-Light" font-size="25.0" fill="#000000" transform="matrix(1.00, 0.00, -0.00, -1.00, 83.7, 628.0)">l</text><text xml:space="preserve" font-family="Helvetica-Light" font-size="25.0" fill="#000000" transform="matrix(1.00, 0.00, -0.00, -1.00, 89.2, 628.0)">l</text><text xml:space="preserve" font-family="Helvetica-Light" font-size="25.0" fill="#000000" transform="matrix(1.00, 0.00, -0.00, -1.00, 94.8, 628.0)">S</text><text xml:space="preserve" font-family="Helvetica-Light" font-size="25.0" fill="#000000" transform="matrix(1.00, 0.00, -0.00, -1.00, 110.1, 628.0)">e</text><text xml:space="preserve" font-family="Helvetica-Light" font-size="25.0" fill="#000000" transform="matrix(1.00, 0.00, -0.00, -1.00, 124.0, 628.0)">e</text><text xml:space="preserve" font-family="Helvetica-Light" font-size="25.0" fill="#000000" transform="matrix(1.00, 0.00, -0.00, -1.00, 137.9, 628.0)">n</text></g></g></g></g><g><clipPath id="clip-71"><path d="M 61.0 688.0 L 731.8 688.0 L 731.8 381.5 L 61.0 381.5 Z M 61.0 688.0 "></path></clipPath><g clip-path="url(#clip-71)"><g><clipPath id="clip-72"><path d="M 159.0 586.8 L 279.5 586.8 L 279.5 688.0 L 159.0 688.0 Z M 159.0 586.8 "></path></clipPath><g clip-path="url(#clip-72)"><text xml:space="preserve" font-family="Helvetica-Light" font-size="25.0" fill="#000000" transform="matrix(1.00, 0.00, -0.00, -1.00, 167.0, 628.0)">H</text><text xml:space="preserve" font-family="Helvetica-Light" font-size="25.0" fill="#000000" transform="matrix(1.00, 0.00, -0.00, -1.00, 185.1, 628.0)">u</text><text xml:space="preserve" font-family="Helvetica-Light" font-size="25.0" fill="#000000" transform="matrix(1.00, 0.00, -0.00, -1.00, 198.9, 628.0)">b</text><text xml:space="preserve" font-family="Helvetica-Light" font-size="25.0" fill="#000000" transform="matrix(1.00, 0.00, -0.00, -1.00, 214.2, 628.0)"> </text><text xml:space="preserve" font-family="Helvetica-Light" font-size="25.0" fill="#000000" transform="matrix(1.00, 0.00, -0.00, -1.00, 221.2, 628.0)">O</text><text xml:space="preserve" font-family="Helvetica-Light" font-size="25.0" fill="#000000" transform="matrix(1.00, 0.00, -0.00, -1.00, 240.6, 628.0)">S</text><text xml:space="preserve" font-family="Helvetica-Light" font-size="25.0" fill="#000000" transform="matrix(1.00, 0.00, -0.00, -1.00, 255.9, 628.0)">S</text></g></g></g></g><g><clipPath id="clip-73"><path d="M 61.0 688.0 L 731.8 688.0 L 731.8 381.5 L 61.0 381.5 Z M 61.0 688.0 "></path></clipPath><g clip-path="url(#clip-73)"><g><clipPath id="clip-74"><path d="M 280.5 586.8 L 361.7 586.8 L 361.7 688.0 L 280.5 688.0 Z M 280.5 586.8 "></path></clipPath><g clip-path="url(#clip-74)"><text xml:space="preserve" font-family="Helvetica-Light" font-size="25.0" fill="#000000" transform="matrix(1.00, 0.00, -0.00, -1.00, 293.0, 628.0)">I</text><text xml:space="preserve" font-family="Helvetica-Light" font-size="25.0" fill="#000000" transform="matrix(1.00, 0.00, -0.00, -1.00, 299.9, 628.0)">P</text><text xml:space="preserve" font-family="Helvetica-Light" font-size="25.0" fill="#000000" transform="matrix(1.00, 0.00, -0.00, -1.00, 315.2, 628.0)">S</text><text xml:space="preserve" font-family="Helvetica-Light" font-size="25.0" fill="#000000" transform="matrix(1.00, 0.00, -0.00, -1.00, 330.5, 628.0)">O</text></g></g></g></g><g><clipPath id="clip-75"><path d="M 61.0 688.0 L 731.8 688.0 L 731.8 381.5 L 61.0 381.5 Z M 61.0 688.0 "></path></clipPath><g clip-path="url(#clip-75)"><g><clipPath id="clip-76"><path d="M 362.7 586.8 L 511.1 586.8 L 511.1 688.0 L 362.7 688.0 Z M 362.7 586.8 "></path></clipPath><g clip-path="url(#clip-76)"><text xml:space="preserve" font-family="Helvetica-Light" font-size="25.0" fill="#000000" transform="matrix(1.00, 0.00, -0.00, -1.00, 369.0, 628.0)">S</text><text xml:space="preserve" font-family="Helvetica-Light" font-size="25.0" fill="#000000" transform="matrix(1.00, 0.00, -0.00, -1.00, 384.3, 628.0)">c</text><text xml:space="preserve" font-family="Helvetica-Light" font-size="25.0" fill="#000000" transform="matrix(1.00, 0.00, -0.00, -1.00, 398.2, 628.0)">h</text><text xml:space="preserve" font-family="Helvetica-Light" font-size="25.0" fill="#000000" transform="matrix(1.00, 0.00, -0.00, -1.00, 412.1, 628.0)">e</text><text xml:space="preserve" font-family="Helvetica-Light" font-size="25.0" fill="#000000" transform="matrix(1.00, 0.00, -0.00, -1.00, 426.0, 628.0)">m</text><text xml:space="preserve" font-family="Helvetica-Light" font-size="25.0" fill="#000000" transform="matrix(1.00, 0.00, -0.00, -1.00, 446.8, 628.0)">a</text><text xml:space="preserve" font-family="Helvetica-Light" font-size="25.0" fill="#000000" transform="matrix(1.00, 0.00, -0.00, -1.00, 460.7, 628.0)">.</text><text xml:space="preserve" font-family="Helvetica-Light" font-size="25.0" fill="#000000" transform="matrix(1.00, 0.00, -0.00, -1.00, 467.7, 628.0)">o</text><text xml:space="preserve" font-family="Helvetica-Light" font-size="25.0" fill="#000000" transform="matrix(1.00, 0.00, -0.00, -1.00, 481.6, 628.0)">r</text><text xml:space="preserve" font-family="Helvetica-Light" font-size="25.0" fill="#000000" transform="matrix(1.00, 0.00, -0.00, -1.00, 489.9, 628.0)">g</text></g></g></g></g><g><clipPath id="clip-77"><path d="M 61.0 688.0 L 731.8 688.0 L 731.8 381.5 L 61.0 381.5 Z M 61.0 688.0 "></path></clipPath><g clip-path="url(#clip-77)"><g><clipPath id="clip-78"><path d="M 512.1 586.8 L 638.9 586.8 L 638.9 688.0 L 512.1 688.0 Z M 512.1 586.8 "></path></clipPath><g clip-path="url(#clip-78)"><text xml:space="preserve" font-family="Helvetica-Light" font-size="25.0" fill="#000000" transform="matrix(1.00, 0.00, -0.00, -1.00, 519.0, 628.0)">O</text><text xml:space="preserve" font-family="Helvetica-Light" font-size="25.0" fill="#000000" transform="matrix(1.00, 0.00, -0.00, -1.00, 538.5, 628.0)">p</text><text xml:space="preserve" font-family="Helvetica-Light" font-size="25.0" fill="#000000" transform="matrix(1.00, 0.00, -0.00, -1.00, 553.7, 628.0)">e</text><text xml:space="preserve" font-family="Helvetica-Light" font-size="25.0" fill="#000000" transform="matrix(1.00, 0.00, -0.00, -1.00, 567.6, 628.0)">n</text><text xml:space="preserve" font-family="Helvetica-Light" font-size="25.0" fill="#000000" transform="matrix(1.00, 0.00, -0.00, -1.00, 581.5, 628.0)">D</text><text xml:space="preserve" font-family="Helvetica-Light" font-size="25.0" fill="#000000" transform="matrix(1.00, 0.00, -0.00, -1.00, 599.6, 628.0)">O</text><text xml:space="preserve" font-family="Helvetica-Light" font-size="25.0" fill="#000000" transform="matrix(1.00, 0.00, -0.00, -1.00, 619.0, 628.0)">F</text></g></g></g></g><g><clipPath id="clip-79"><path d="M 61.0 688.0 L 731.8 688.0 L 731.8 381.5 L 61.0 381.5 Z M 61.0 688.0 "></path></clipPath><g clip-path="url(#clip-79)"><g><clipPath id="clip-80"><path d="M 639.9 586.8 L 731.8 586.8 L 731.8 688.0 L 639.9 688.0 Z M 639.9 586.8 "></path></clipPath><g clip-path="url(#clip-80)"><text xml:space="preserve" font-family="Helvetica-Light" font-size="25.0" fill="#000000" transform="matrix(1.00, 0.00, -0.00, -1.00, 659.0, 628.0)">W</text><text xml:space="preserve" font-family="Helvetica-Light" font-size="25.0" fill="#000000" transform="matrix(1.00, 0.00, -0.00, -1.00, 681.2, 628.0)">3</text><text xml:space="preserve" font-family="Helvetica-Light" font-size="25.0" fill="#000000" transform="matrix(1.00, 0.00, -0.00, -1.00, 695.1, 628.0)">C</text></g></g></g></g><g><clipPath id="clip-81"><path d="M 61.0 688.0 L 731.8 688.0 L 731.8 381.5 L 61.0 381.5 Z M 61.0 688.0 "></path></clipPath><g clip-path="url(#clip-81)"><g><clipPath id="clip-82"><path d="M 61.0 483.6 L 158.0 483.6 L 158.0 585.8 L 61.0 585.8 Z M 61.0 483.6 "></path></clipPath><g clip-path="url(#clip-82)"><text xml:space="preserve" font-family="Helvetica-Light" font-size="25.0" fill="#000000" transform="matrix(1.00, 0.00, -0.00, -1.00, 78.0, 526.0)">A</text><text xml:space="preserve" font-family="Helvetica-Light" font-size="25.0" fill="#000000" transform="matrix(1.00, 0.00, -0.00, -1.00, 94.7, 526.0)">I</text><text xml:space="preserve" font-family="Helvetica-Light" font-size="25.0" fill="#000000" transform="matrix(1.00, 0.00, -0.00, -1.00, 101.6, 526.0)">O</text><text xml:space="preserve" font-family="Helvetica-Light" font-size="25.0" fill="#000000" transform="matrix(1.00, 0.00, -0.00, -1.00, 121.1, 526.0)">T</text><text xml:space="preserve" font-family="Helvetica-Light" font-size="25.0" fill="#000000" transform="matrix(1.00, 0.00, -0.00, -1.00, 135.0, 526.0)">I</text></g></g></g></g><g><clipPath id="clip-83"><path d="M 61.0 688.0 L 731.8 688.0 L 731.8 381.5 L 61.0 381.5 Z M 61.0 688.0 "></path></clipPath><g clip-path="url(#clip-83)"><g><clipPath id="clip-84"><path d="M 159.0 483.6 L 279.5 483.6 L 279.5 585.8 L 159.0 585.8 Z M 159.0 483.6 "></path></clipPath><g clip-path="url(#clip-84)"><text xml:space="preserve" font-family="Helvetica-Light" font-size="25.0" fill="#000000" transform="matrix(1.00, 0.00, -0.00, -1.00, 199.0, 526.0)">I</text><text xml:space="preserve" font-family="Helvetica-Light" font-size="25.0" fill="#000000" transform="matrix(1.00, 0.00, -0.00, -1.00, 205.9, 526.0)">A</text><text xml:space="preserve" font-family="Helvetica-Light" font-size="25.0" fill="#000000" transform="matrix(1.00, 0.00, -0.00, -1.00, 222.6, 526.0)">B</text></g></g></g></g><g><clipPath id="clip-85"><path d="M 61.0 688.0 L 731.8 688.0 L 731.8 381.5 L 61.0 381.5 Z M 61.0 688.0 "></path></clipPath><g clip-path="url(#clip-85)"><g><clipPath id="clip-86"><path d="M 280.5 483.6 L 361.7 483.6 L 361.7 585.8 L 280.5 585.8 Z M 280.5 483.6 "></path></clipPath><g clip-path="url(#clip-86)"><text xml:space="preserve" font-family="Helvetica-Light" font-size="25.0" fill="#000000" transform="matrix(1.00, 0.00, -0.00, -1.00, 286.0, 526.0)">I</text><text xml:space="preserve" font-family="Helvetica-Light" font-size="25.0" fill="#000000" transform="matrix(1.00, 0.00, -0.00, -1.00, 292.9, 526.0)">o</text><text xml:space="preserve" font-family="Helvetica-Light" font-size="25.0" fill="#000000" transform="matrix(1.00, 0.00, -0.00, -1.00, 306.9, 526.0)">T</text><text xml:space="preserve" font-family="Helvetica-Light" font-size="25.0" fill="#000000" transform="matrix(1.00, 0.00, -0.00, -1.00, 320.8, 526.0)">D</text><text xml:space="preserve" font-family="Helvetica-Light" font-size="25.0" fill="#000000" transform="matrix(1.00, 0.00, -0.00, -1.00, 338.8, 526.0)">B</text></g></g></g></g><g><clipPath id="clip-87"><path d="M 61.0 688.0 L 731.8 688.0 L 731.8 381.5 L 61.0 381.5 Z M 61.0 688.0 "></path></clipPath><g clip-path="url(#clip-87)"><g><clipPath id="clip-88"><path d="M 362.7 483.6 L 511.1 483.6 L 511.1 585.8 L 362.7 585.8 Z M 362.7 483.6 "></path></clipPath><g clip-path="url(#clip-88)"><text xml:space="preserve" font-family="Helvetica-Light" font-size="25.0" fill="#000000" transform="matrix(1.00, 0.00, -0.00, -1.00, 408.0, 526.0)">O</text><text xml:space="preserve" font-family="Helvetica-Light" font-size="25.0" fill="#000000" transform="matrix(1.00, 0.00, -0.00, -1.00, 427.4, 526.0)">G</text><text xml:space="preserve" font-family="Helvetica-Light" font-size="25.0" fill="#000000" transform="matrix(1.00, 0.00, -0.00, -1.00, 446.9, 526.0)">C</text></g></g></g></g><g><clipPath id="clip-89"><path d="M 61.0 688.0 L 731.8 688.0 L 731.8 381.5 L 61.0 381.5 Z M 61.0 688.0 "></path></clipPath><g clip-path="url(#clip-89)"><g><clipPath id="clip-90"><path d="M 512.1 483.6 L 638.9 483.6 L 638.9 585.8 L 512.1 585.8 Z M 512.1 483.6 "></path></clipPath><g clip-path="url(#clip-90)"><text xml:space="preserve" font-family="Helvetica-Light" font-size="25.0" fill="#000000" transform="matrix(1.00, 0.00, -0.00, -1.00, 547.0, 526.0)">O</text><text xml:space="preserve" font-family="Helvetica-Light" font-size="25.0" fill="#000000" transform="matrix(1.00, 0.00, -0.00, -1.00, 566.5, 526.0)">M</text><text xml:space="preserve" font-family="Helvetica-Light" font-size="25.0" fill="#000000" transform="matrix(1.00, 0.00, -0.00, -1.00, 587.3, 526.0)">A</text></g></g></g></g><g><clipPath id="clip-91"><path d="M 61.0 688.0 L 731.8 688.0 L 731.8 381.5 L 61.0 381.5 Z M 61.0 688.0 "></path></clipPath><g clip-path="url(#clip-91)"><g><clipPath id="clip-92"><path d="M 639.9 483.6 L 731.8 483.6 L 731.8 585.8 L 639.9 585.8 Z M 639.9 483.6 "></path></clipPath><g clip-path="url(#clip-92)"><text xml:space="preserve" font-family="Helvetica-Light" font-size="25.0" fill="#000000" transform="matrix(1.00, 0.00, -0.00, -1.00, 646.0, 526.0)">Z</text><text xml:space="preserve" font-family="Helvetica-Light" font-size="25.0" fill="#000000" transform="matrix(1.00, 0.00, -0.00, -1.00, 661.3, 526.0)">i</text><text xml:space="preserve" font-family="Helvetica-Light" font-size="25.0" fill="#000000" transform="matrix(1.00, 0.00, -0.00, -1.00, 666.8, 526.0)">g</text><text xml:space="preserve" font-family="Helvetica-Light" font-size="25.0" fill="#000000" transform="matrix(1.00, 0.00, -0.00, -1.00, 682.1, 526.0)">B</text><text xml:space="preserve" font-family="Helvetica-Light" font-size="25.0" fill="#000000" transform="matrix(1.00, 0.00, -0.00, -1.00, 698.8, 526.0)">e</text><text xml:space="preserve" font-family="Helvetica-Light" font-size="25.0" fill="#000000" transform="matrix(1.00, 0.00, -0.00, -1.00, 712.7, 526.0)">e</text></g></g></g></g><g><clipPath id="clip-93"><path d="M 61.0 688.0 L 731.8 688.0 L 731.8 381.5 L 61.0 381.5 Z M 61.0 688.0 "></path></clipPath><g clip-path="url(#clip-93)"><g><clipPath id="clip-94"><path d="M 61.0 381.5 L 158.0 381.5 L 158.0 482.6 L 61.0 482.6 Z M 61.0 381.5 "></path></clipPath><g clip-path="url(#clip-94)"><text xml:space="preserve" font-family="Helvetica-Light" font-size="25.0" fill="#000000" transform="matrix(1.00, 0.00, -0.00, -1.00, 84.0, 422.0)">E</text><text xml:space="preserve" font-family="Helvetica-Light" font-size="25.0" fill="#000000" transform="matrix(1.00, 0.00, -0.00, -1.00, 99.3, 422.0)">T</text><text xml:space="preserve" font-family="Helvetica-Light" font-size="25.0" fill="#000000" transform="matrix(1.00, 0.00, -0.00, -1.00, 113.2, 422.0)">S</text><text xml:space="preserve" font-family="Helvetica-Light" font-size="25.0" fill="#000000" transform="matrix(1.00, 0.00, -0.00, -1.00, 128.4, 422.0)">I</text></g></g></g></g><g><clipPath id="clip-95"><path d="M 61.0 688.0 L 731.8 688.0 L 731.8 381.5 L 61.0 381.5 Z M 61.0 688.0 "></path></clipPath><g clip-path="url(#clip-95)"><g><clipPath id="clip-96"><path d="M 159.0 381.5 L 279.5 381.5 L 279.5 482.6 L 159.0 482.6 Z M 159.0 381.5 "></path></clipPath><g clip-path="url(#clip-96)"><text xml:space="preserve" font-family="Helvetica-Light" font-size="25.0" fill="#000000" transform="matrix(1.00, 0.00, -0.00, -1.00, 165.0, 422.0)">I</text><text xml:space="preserve" font-family="Helvetica-Light" font-size="25.0" fill="#000000" transform="matrix(1.00, 0.00, -0.00, -1.00, 171.9, 422.0)">E</text><text xml:space="preserve" font-family="Helvetica-Light" font-size="25.0" fill="#000000" transform="matrix(1.00, 0.00, -0.00, -1.00, 187.2, 422.0)">T</text><text xml:space="preserve" font-family="Helvetica-Light" font-size="25.0" fill="#000000" transform="matrix(1.00, 0.00, -0.00, -1.00, 201.1, 422.0)">F</text><text xml:space="preserve" font-family="Helvetica-Light" font-size="25.0" fill="#000000" transform="matrix(1.00, 0.00, -0.00, -1.00, 215.0, 422.0)">/</text><text xml:space="preserve" font-family="Helvetica-Light" font-size="25.0" fill="#000000" transform="matrix(1.00, 0.00, -0.00, -1.00, 222.0, 422.0)">I</text><text xml:space="preserve" font-family="Helvetica-Light" font-size="25.0" fill="#000000" transform="matrix(1.00, 0.00, -0.00, -1.00, 228.9, 422.0)">R</text><text xml:space="preserve" font-family="Helvetica-Light" font-size="25.0" fill="#000000" transform="matrix(1.00, 0.00, -0.00, -1.00, 245.2, 422.0)">T</text><text xml:space="preserve" font-family="Helvetica-Light" font-size="25.0" fill="#000000" transform="matrix(1.00, 0.00, -0.00, -1.00, 259.1, 422.0)">F</text></g></g></g></g><g><clipPath id="clip-97"><path d="M 61.0 688.0 L 731.8 688.0 L 731.8 381.5 L 61.0 381.5 Z M 61.0 688.0 "></path></clipPath><g clip-path="url(#clip-97)"><g><clipPath id="clip-98"><path d="M 280.5 381.5 L 361.7 381.5 L 361.7 482.6 L 280.5 482.6 Z M 280.5 381.5 "></path></clipPath><g clip-path="url(#clip-98)"><text xml:space="preserve" font-family="Helvetica-Light" font-size="25.0" fill="#000000" transform="matrix(1.00, 0.00, -0.00, -1.00, 294.0, 422.0)">N</text><text xml:space="preserve" font-family="Helvetica-Light" font-size="25.0" fill="#000000" transform="matrix(1.00, 0.00, -0.00, -1.00, 312.1, 422.0)">I</text><text xml:space="preserve" font-family="Helvetica-Light" font-size="25.0" fill="#000000" transform="matrix(1.00, 0.00, -0.00, -1.00, 319.0, 422.0)">S</text><text xml:space="preserve" font-family="Helvetica-Light" font-size="25.0" fill="#000000" transform="matrix(1.00, 0.00, -0.00, -1.00, 334.3, 422.0)">T</text></g></g></g></g><g><clipPath id="clip-99"><path d="M 61.0 688.0 L 731.8 688.0 L 731.8 381.5 L 61.0 381.5 Z M 61.0 688.0 "></path></clipPath><g clip-path="url(#clip-99)"><g><clipPath id="clip-100"><path d="M 362.7 381.5 L 511.1 381.5 L 511.1 482.6 L 362.7 482.6 Z M 362.7 381.5 "></path></clipPath><g clip-path="url(#clip-100)"><text xml:space="preserve" font-family="Helvetica-Light" font-size="25.0" fill="#000000" transform="matrix(1.00, 0.00, -0.00, -1.00, 386.0, 422.0)">O</text><text xml:space="preserve" font-family="Helvetica-Light" font-size="25.0" fill="#000000" transform="matrix(1.00, 0.00, -0.00, -1.00, 405.4, 422.0)">I</text><text xml:space="preserve" font-family="Helvetica-Light" font-size="25.0" fill="#000000" transform="matrix(1.00, 0.00, -0.00, -1.00, 412.4, 422.0)">C</text><text xml:space="preserve" font-family="Helvetica-Light" font-size="25.0" fill="#000000" transform="matrix(1.00, 0.00, -0.00, -1.00, 430.4, 422.0)">/</text><text xml:space="preserve" font-family="Helvetica-Light" font-size="25.0" fill="#000000" transform="matrix(1.00, 0.00, -0.00, -1.00, 437.4, 422.0)">O</text><text xml:space="preserve" font-family="Helvetica-Light" font-size="25.0" fill="#000000" transform="matrix(1.00, 0.00, -0.00, -1.00, 456.9, 422.0)">C</text><text xml:space="preserve" font-family="Helvetica-Light" font-size="25.0" fill="#000000" transform="matrix(1.00, 0.00, -0.00, -1.00, 474.9, 422.0)">F</text></g></g></g></g><g><clipPath id="clip-101"><path d="M 61.0 688.0 L 731.8 688.0 L 731.8 381.5 L 61.0 381.5 Z M 61.0 688.0 "></path></clipPath><g clip-path="url(#clip-101)"><g><clipPath id="clip-102"><path d="M 512.1 381.5 L 638.9 381.5 L 638.9 482.6 L 512.1 482.6 Z M 512.1 381.5 "></path></clipPath><g clip-path="url(#clip-102)"><text xml:space="preserve" font-family="Helvetica-Light" font-size="25.0" fill="#000000" transform="matrix(1.00, 0.00, -0.00, -1.00, 548.0, 422.0)">W</text><text xml:space="preserve" font-family="Helvetica-Light" font-size="25.0" fill="#000000" transform="matrix(1.00, 0.00, -0.00, -1.00, 570.2, 422.0)">3</text><text xml:space="preserve" font-family="Helvetica-Light" font-size="25.0" fill="#000000" transform="matrix(1.00, 0.00, -0.00, -1.00, 584.1, 422.0)">C</text></g></g></g></g><g><clipPath id="clip-103"><path d="M 61.0 688.0 L 731.8 688.0 L 731.8 381.5 L 61.0 381.5 Z M 61.0 688.0 "></path></clipPath><g clip-path="url(#clip-103)"><g><clipPath id="clip-104"><path d="M 639.9 381.5 L 731.8 381.5 L 731.8 482.6 L 639.9 482.6 Z M 639.9 381.5 "></path></clipPath><g clip-path="url(#clip-104)"><text xml:space="preserve" font-family="Helvetica-Light" font-size="25.0" fill="#000000" transform="matrix(1.00, 0.00, -0.00, -1.00, 647.0, 422.0)">Z</text><text xml:space="preserve" font-family="Helvetica-Light" font-size="25.0" fill="#000000" transform="matrix(1.00, 0.00, -0.00, -1.00, 662.3, 422.0)">W</text><text xml:space="preserve" font-family="Helvetica-Light" font-size="25.0" fill="#000000" transform="matrix(1.00, 0.00, -0.00, -1.00, 683.6, 422.0)">a</text><text xml:space="preserve" font-family="Helvetica-Light" font-size="25.0" fill="#000000" transform="matrix(1.00, 0.00, -0.00, -1.00, 697.5, 422.0)">v</text><text xml:space="preserve" font-family="Helvetica-Light" font-size="25.0" fill="#000000" transform="matrix(1.00, 0.00, -0.00, -1.00, 710.0, 422.0)">e</text></g></g></g></g><g><clipPath id="clip-105"><path d="M 61.0 688.0 L 731.8 688.0 L 731.8 381.5 L 61.0 381.5 Z M 61.0 688.0 "></path></clipPath><g clip-path="url(#clip-105)"><path d="M 98.5 1.0 L 98.5 307.5 " fill="none" stroke="#3697C6" stroke-width="1.00" transform="matrix(1.00, 0.00, 0.00, -1.00, 60.0, 689.0)"></path><path d="M 220.0 1.0 L 220.0 307.5 " fill="none" stroke="#3697C6" stroke-width="1.00" transform="matrix(1.00, 0.00, 0.00, -1.00, 60.0, 689.0)"></path><path d="M 302.2 1.0 L 302.2 307.5 " fill="none" stroke="#3697C6" stroke-width="1.00" transform="matrix(1.00, 0.00, 0.00, -1.00, 60.0, 689.0)"></path><path d="M 451.6 1.0 L 451.6 307.5 " fill="none" stroke="#3697C6" stroke-width="1.00" transform="matrix(1.00, 0.00, 0.00, -1.00, 60.0, 689.0)"></path><path d="M 579.4 1.0 L 579.4 307.5 " fill="none" stroke="#3697C6" stroke-width="1.00" transform="matrix(1.00, 0.00, 0.00, -1.00, 60.0, 689.0)"></path><path d="M 1.0 102.7 L 671.8 102.7 " fill="none" stroke="#3697C6" stroke-width="1.00" transform="matrix(1.00, 0.00, 0.00, -1.00, 60.0, 689.0)"></path><path d="M 1.0 205.9 L 671.8 205.9 " fill="none" stroke="#3697C6" stroke-width="1.00" transform="matrix(1.00, 0.00, 0.00, -1.00, 60.0, 689.0)"></path></g></g><image xlink:href="../../7515482B-602A-44A9-A0E8-069F3BD93CE1/assets/00F5575BA74609780BD57EA9C99396A2.png" width="231.00" height="126.00" transform="matrix(0.81, 0.00, -0.00, -0.79, 796.0, 730.0)"></image><image xlink:href="3D55055672C46E3456703C6A6B221A70.png" width="500.00" height="283.00" transform="matrix(1.05, 0.00, -0.00, -1.05, 404.0, 371.0)"></image><path d="M 160.0 116.6 L 157.5 116.6 C 57.9 117.1 5.5 85.0 0.4 20.4 L 0.4 17.9 " fill="none" stroke="#000000" stroke-width="5.00" stroke-linecap="round" stroke-linejoin="round" stroke-dasharray="0.0, 15.0" transform="matrix(1.00, 0.00, 0.00, -1.00, 188.3, 317.2)"></path><path d="M 198.9 296.8 L 188.6 317.2 L 178.5 296.7 Z M 198.9 296.8 " fill="#000000"></path><path d="M 346.0 190.4 L 366.2 201.1 L 345.5 210.8 Z M 346.0 190.4 " fill="#000000"></path><text xml:space="preserve" font-family="Helvetica-Light" font-size="36.0" fill="#000000" transform="matrix(1.00, 0.00, -0.00, -1.00, 33.0, 171.0)">G</text><text xml:space="preserve" font-family="Helvetica-Light" font-size="36.0" fill="#000000" transform="matrix(1.00, 0.00, -0.00, -1.00, 61.0, 171.0)">o</text><text xml:space="preserve" font-family="Helvetica-Light" font-size="36.0" fill="#000000" transform="matrix(1.00, 0.00, -0.00, -1.00, 81.0, 171.0)">a</text><text xml:space="preserve" font-family="Helvetica-Light" font-size="36.0" fill="#000000" transform="matrix(1.00, 0.00, -0.00, -1.00, 101.0, 171.0)">l</text><text xml:space="preserve" font-family="Helvetica-Light" font-size="36.0" fill="#000000" transform="matrix(1.00, 0.00, -0.00, -1.00, 109.0, 171.0)"> </text><text xml:space="preserve" font-family="Helvetica-Light" font-size="36.0" fill="#000000" transform="matrix(1.00, 0.00, -0.00, -1.00, 119.0, 171.0)">w</text><text xml:space="preserve" font-family="Helvetica-Light" font-size="36.0" fill="#000000" transform="matrix(1.00, 0.00, -0.00, -1.00, 145.0, 171.0)">a</text><text xml:space="preserve" font-family="Helvetica-Light" font-size="36.0" fill="#000000" transform="matrix(1.00, 0.00, -0.00, -1.00, 165.0, 171.0)">s</text><text xml:space="preserve" font-family="Helvetica-Light" font-size="36.0" fill="#000000" transform="matrix(1.00, 0.00, -0.00, -1.00, 183.0, 171.0)"> </text><text xml:space="preserve" font-family="Helvetica-Light" font-size="36.0" fill="#000000" transform="matrix(1.00, 0.00, -0.00, -1.00, 193.1, 171.0)">n</text><text xml:space="preserve" font-family="Helvetica-Light" font-size="36.0" fill="#000000" transform="matrix(1.00, 0.00, -0.00, -1.00, 213.1, 171.0)">o</text><text xml:space="preserve" font-family="Helvetica-Light" font-size="36.0" fill="#000000" transform="matrix(1.00, 0.00, -0.00, -1.00, 233.1, 171.0)">t</text><text xml:space="preserve" font-family="Helvetica-Light" font-size="36.0" fill="#000000" transform="matrix(1.00, 0.00, -0.00, -1.00, 243.1, 171.0)"> </text><text xml:space="preserve" font-family="Helvetica-Light" font-size="36.0" fill="#000000" transform="matrix(1.00, 0.00, -0.00, -1.00, 253.1, 171.0)">t</text><text xml:space="preserve" font-family="Helvetica-Light" font-size="36.0" fill="#000000" transform="matrix(1.00, 0.00, -0.00, -1.00, 263.1, 171.0)">o</text><text xml:space="preserve" font-family="Helvetica-Light" font-size="36.0" fill="#000000" transform="matrix(1.00, 0.00, -0.00, -1.00, 283.1, 171.0)"> </text><text xml:space="preserve" font-family="Helvetica-Light" font-size="36.0" fill="#000000" transform="matrix(1.00, 0.00, -0.00, -1.00, 33.0, 128.0)">m</text><text xml:space="preserve" font-family="Helvetica-Light" font-size="36.0" fill="#000000" transform="matrix(1.00, 0.00, -0.00, -1.00, 63.0, 128.0)">a</text><text xml:space="preserve" font-family="Helvetica-Light" font-size="36.0" fill="#000000" transform="matrix(1.00, 0.00, -0.00, -1.00, 83.0, 128.0)">k</text><text xml:space="preserve" font-family="Helvetica-Light" font-size="36.0" fill="#000000" transform="matrix(1.00, 0.00, -0.00, -1.00, 101.0, 128.0)">e</text><text xml:space="preserve" font-family="Helvetica-Light" font-size="36.0" fill="#000000" transform="matrix(1.00, 0.00, -0.00, -1.00, 121.0, 128.0)"> </text><text xml:space="preserve" font-family="Helvetica-Light" font-size="36.0" fill="#000000" transform="matrix(1.00, 0.00, -0.00, -1.00, 131.0, 128.0)">a</text><text xml:space="preserve" font-family="Helvetica-Light" font-size="36.0" fill="#000000" transform="matrix(1.00, 0.00, -0.00, -1.00, 151.0, 128.0)"> </text><text xml:space="preserve" font-family="Helvetica-Light" font-size="36.0" fill="#000000" transform="matrix(1.00, 0.00, -0.00, -1.00, 161.1, 128.0)">n</text><text xml:space="preserve" font-family="Helvetica-Light" font-size="36.0" fill="#000000" transform="matrix(1.00, 0.00, -0.00, -1.00, 181.1, 128.0)">e</text><text xml:space="preserve" font-family="Helvetica-Light" font-size="36.0" fill="#000000" transform="matrix(1.00, 0.00, -0.00, -1.00, 201.1, 128.0)">w</text><text xml:space="preserve" font-family="Helvetica-Light" font-size="36.0" fill="#000000" transform="matrix(1.00, 0.00, -0.00, -1.00, 227.1, 128.0)"> </text><text xml:space="preserve" font-family="Helvetica-Light" font-size="36.0" fill="#000000" transform="matrix(1.00, 0.00, -0.00, -1.00, 33.0, 85.0)">s</text><text xml:space="preserve" font-family="Helvetica-Light" font-size="36.0" fill="#000000" transform="matrix(1.00, 0.00, -0.00, -1.00, 51.0, 85.0)">t</text><text xml:space="preserve" font-family="Helvetica-Light" font-size="36.0" fill="#000000" transform="matrix(1.00, 0.00, -0.00, -1.00, 61.0, 85.0)">a</text><text xml:space="preserve" font-family="Helvetica-Light" font-size="36.0" fill="#000000" transform="matrix(1.00, 0.00, -0.00, -1.00, 81.0, 85.0)">n</text><text xml:space="preserve" font-family="Helvetica-Light" font-size="36.0" fill="#000000" transform="matrix(1.00, 0.00, -0.00, -1.00, 101.0, 85.0)">d</text><text xml:space="preserve" font-family="Helvetica-Light" font-size="36.0" fill="#000000" transform="matrix(1.00, 0.00, -0.00, -1.00, 123.0, 85.0)">a</text><text xml:space="preserve" font-family="Helvetica-Light" font-size="36.0" fill="#000000" transform="matrix(1.00, 0.00, -0.00, -1.00, 143.1, 85.0)">r</text><text xml:space="preserve" font-family="Helvetica-Light" font-size="36.0" fill="#000000" transform="matrix(1.00, 0.00, -0.00, -1.00, 154.4, 85.0)">d</text></g></svg>