<?xml version="1.0" encoding="UTF-8" standalone="no"?><svg xmlns="http://www.w3.org/2000/svg" xmlns:xlink="http://www.w3.org/1999/xlink" clip-rule="evenodd" stroke-miterlimit="4.00" viewBox="0 0 1024 768"><desc>SVG generated by Keynote</desc><defs></defs><g transform="matrix(1.00, 0.00, -0.00, -1.00, 0.0, 768.0)"><path d="M 0.0 768.0 L 1024.0 768.0 L 1024.0 0.0 L 0.0 0.0 Z M 0.0 768.0 " fill="#FEFFFF"></path><text xml:space="preserve" font-family="Helvetica-Light" font-size="86.0" fill="#000000" transform="matrix(1.00, 0.00, -0.00, -1.00, 57.8, 590.4)">I</text><text xml:space="preserve" font-family="Helvetica-Light" font-size="86.0" fill="#000000" transform="matrix(1.00, 0.00, -0.00, -1.00, 81.8, 590.4)">n</text><text xml:space="preserve" font-family="Helvetica-Light" font-size="86.0" fill="#000000" transform="matrix(1.00, 0.00, -0.00, -1.00, 129.6, 590.4)">t</text><text xml:space="preserve" font-family="Helvetica-Light" font-size="86.0" fill="#000000" transform="matrix(1.00, 0.00, -0.00, -1.00, 153.5, 590.4)">e</text><text xml:space="preserve" font-family="Helvetica-Light" font-size="86.0" fill="#000000" transform="matrix(1.00, 0.00, -0.00, -1.00, 201.3, 590.4)">r</text><text xml:space="preserve" font-family="Helvetica-Light" font-size="86.0" fill="#000000" transform="matrix(1.00, 0.00, -0.00, -1.00, 231.5, 590.4)">n</text><text xml:space="preserve" font-family="Helvetica-Light" font-size="86.0" fill="#000000" transform="matrix(1.00, 0.00, -0.00, -1.00, 279.3, 590.4)">e</text><text xml:space="preserve" font-family="Helvetica-Light" font-size="86.0" fill="#000000" transform="matrix(1.00, 0.00, -0.00, -1.00, 327.1, 590.4)">t</text><text xml:space="preserve" font-family="Helvetica-Light" font-size="86.0" fill="#000000" transform="matrix(1.00, 0.00, -0.00, -1.00, 351.0, 590.4)"> </text><text xml:space="preserve" font-family="Helvetica-Light" font-size="86.0" fill="#000000" transform="matrix(1.00, 0.00, -0.00, -1.00, 374.9, 590.4)">o</text><text xml:space="preserve" font-family="Helvetica-Light" font-size="86.0" fill="#000000" transform="matrix(1.00, 0.00, -0.00, -1.00, 422.7, 590.4)">f</text><text xml:space="preserve" font-family="Helvetica-Light" font-size="86.0" fill="#000000" transform="matrix(1.00, 0.00, -0.00, -1.00, 446.7, 590.4)"> </text><text xml:space="preserve" font-family="Helvetica-Light" font-size="86.0" fill="#000000" transform="matrix(1.00, 0.00, -0.00, -1.00, 470.6, 590.4)">T</text><text xml:space="preserve" font-family="Helvetica-Light" font-size="86.0" fill="#000000" transform="matrix(1.00, 0.00, -0.00, -1.00, 518.4, 590.4)">h</text><text xml:space="preserve" font-family="Helvetica-Light" font-size="86.0" fill="#000000" transform="matrix(1.00, 0.00, -0.00, -1.00, 566.2, 590.4)">i</text><text xml:space="preserve" font-family="Helvetica-Light" font-size="86.0" fill="#000000" transform="matrix(1.00, 0.00, -0.00, -1.00, 585.3, 590.4)">n</text><text xml:space="preserve" font-family="Helvetica-Light" font-size="86.0" fill="#000000" transform="matrix(1.00, 0.00, -0.00, -1.00, 633.1, 590.4)">g</text><text xml:space="preserve" font-family="Helvetica-Light" font-size="86.0" fill="#000000" transform="matrix(1.00, 0.00, -0.00, -1.00, 685.6, 590.4)">s</text><text xml:space="preserve" font-family="Helvetica-Light" font-size="86.0" fill="#000000" transform="matrix(1.00, 0.00, -0.00, -1.00, 728.6, 590.4)"> </text><text xml:space="preserve" font-family="Helvetica-Light" font-size="60.0" fill="#000000" transform="matrix(1.00, 0.00, -0.00, -1.00, 62.9, 512.4)">S</text><text xml:space="preserve" font-family="Helvetica-Light" font-size="60.0" fill="#000000" transform="matrix(1.00, 0.00, -0.00, -1.00, 99.5, 512.4)">e</text><text xml:space="preserve" font-family="Helvetica-Light" font-size="60.0" fill="#000000" transform="matrix(1.00, 0.00, -0.00, -1.00, 132.9, 512.4)">m</text><text xml:space="preserve" font-family="Helvetica-Light" font-size="60.0" fill="#000000" transform="matrix(1.00, 0.00, -0.00, -1.00, 182.9, 512.4)">a</text><text xml:space="preserve" font-family="Helvetica-Light" font-size="60.0" fill="#000000" transform="matrix(1.00, 0.00, -0.00, -1.00, 216.2, 512.4)">n</text><text xml:space="preserve" font-family="Helvetica-Light" font-size="60.0" fill="#000000" transform="matrix(1.00, 0.00, -0.00, -1.00, 249.6, 512.4)">t</text><text xml:space="preserve" font-family="Helvetica-Light" font-size="60.0" fill="#000000" transform="matrix(1.00, 0.00, -0.00, -1.00, 266.3, 512.4)">i</text><text xml:space="preserve" font-family="Helvetica-Light" font-size="60.0" fill="#000000" transform="matrix(1.00, 0.00, -0.00, -1.00, 279.6, 512.4)">c</text><text xml:space="preserve" font-family="Helvetica-Light" font-size="60.0" fill="#000000" transform="matrix(1.00, 0.00, -0.00, -1.00, 313.0, 512.4)"> </text><text xml:space="preserve" font-family="Helvetica-Light" font-size="60.0" fill="#000000" transform="matrix(1.00, 0.00, -0.00, -1.00, 329.6, 512.4)">I</text><text xml:space="preserve" font-family="Helvetica-Light" font-size="60.0" fill="#000000" transform="matrix(1.00, 0.00, -0.00, -1.00, 346.3, 512.4)">n</text><text xml:space="preserve" font-family="Helvetica-Light" font-size="60.0" fill="#000000" transform="matrix(1.00, 0.00, -0.00, -1.00, 379.7, 512.4)">t</text><text xml:space="preserve" font-family="Helvetica-Light" font-size="60.0" fill="#000000" transform="matrix(1.00, 0.00, -0.00, -1.00, 396.4, 512.4)">e</text><text xml:space="preserve" font-family="Helvetica-Light" font-size="60.0" fill="#000000" transform="matrix(1.00, 0.00, -0.00, -1.00, 429.7, 512.4)">r</text><text xml:space="preserve" font-family="Helvetica-Light" font-size="60.0" fill="#000000" transform="matrix(1.00, 0.00, -0.00, -1.00, 448.6, 512.4)">o</text><text xml:space="preserve" font-family="Helvetica-Light" font-size="60.0" fill="#000000" transform="matrix(1.00, 0.00, -0.00, -1.00, 482.0, 512.4)">p</text><text xml:space="preserve" font-family="Helvetica-Light" font-size="60.0" fill="#000000" transform="matrix(1.00, 0.00, -0.00, -1.00, 518.6, 512.4)">e</text><text xml:space="preserve" font-family="Helvetica-Light" font-size="60.0" fill="#000000" transform="matrix(1.00, 0.00, -0.00, -1.00, 552.0, 512.4)">r</text><text xml:space="preserve" font-family="Helvetica-Light" font-size="60.0" fill="#000000" transform="matrix(1.00, 0.00, -0.00, -1.00, 572.0, 512.4)">a</text><text xml:space="preserve" font-family="Helvetica-Light" font-size="60.0" fill="#000000" transform="matrix(1.00, 0.00, -0.00, -1.00, 605.3, 512.4)">b</text><text xml:space="preserve" font-family="Helvetica-Light" font-size="60.0" fill="#000000" transform="matrix(1.00, 0.00, -0.00, -1.00, 642.0, 512.4)">i</text><text xml:space="preserve" font-family="Helvetica-Light" font-size="60.0" fill="#000000" transform="matrix(1.00, 0.00, -0.00, -1.00, 655.3, 512.4)">l</text><text xml:space="preserve" font-family="Helvetica-Light" font-size="60.0" fill="#000000" transform="matrix(1.00, 0.00, -0.00, -1.00, 668.6, 512.4)">i</text><text xml:space="preserve" font-family="Helvetica-Light" font-size="60.0" fill="#000000" transform="matrix(1.00, 0.00, -0.00, -1.00, 682.0, 512.4)">t</text><text xml:space="preserve" font-family="Helvetica-Light" font-size="60.0" fill="#000000" transform="matrix(1.00, 0.00, -0.00, -1.00, 698.6, 512.4)">y</text><text xml:space="preserve" font-family="Helvetica-Light" font-size="18.0" fill="#000000" transform="matrix(1.00, 0.00, -0.00, -1.00, 506.0, 18.0)">1</text><g><clipPath id="clip-0"><path d="M 795.0 541.0 L 992.0 541.0 L 992.0 646.0 L 795.0 646.0 Z M 795.0 541.0 "></path></clipPath><g clip-path="url(#clip-0)"><path d="M 795.0 646.0 L 992.0 646.0 L 992.0 541.0 L 795.0 541.0 Z M 795.0 646.0 " fill="#FEFFFF" fill-opacity="0.00"></path></g></g><g><clipPath id="clip-1"><path d="M 796.4 645.5 L 991.1 645.5 L 991.1 542.1 L 796.4 542.1 Z M 796.4 645.5 "></path></clipPath><g clip-path="url(#clip-1)"><g><clipPath id="clip-2"><path d="M 796.4 542.1 L 991.1 542.1 L 991.1 645.5 L 796.4 645.5 Z M 796.4 542.1 "></path></clipPath><g clip-path="url(#clip-2)"><image xlink:href="DC57A272D8173069EC3D2BF6CC6CF669.png" width="2121.00" height="1125.00" transform="matrix(0.09, 0.00, -0.00, -0.09, 796.4, 645.5)"></image></g></g></g></g><path d="M 0.0 0.0 L 838.2 0.0 " fill="none" stroke="#000000" stroke-width="2.00" transform="matrix(1.00, 0.00, 0.00, -1.00, 55.1, 434.0)"></path><path d="M 0.0 0.0 L 678.6 0.0 " fill="none" stroke="#000000" stroke-width="2.00" transform="matrix(0.00, 1.00, 1.00, 0.00, 755.4, 15.9)"></path><text xml:space="preserve" font-family="Helvetica-Light" font-size="64.0" fill="#000000" transform="matrix(1.00, 0.00, -0.00, -1.00, 301.9, 260.0)">J</text><text xml:space="preserve" font-family="Helvetica-Light" font-size="64.0" fill="#000000" transform="matrix(1.00, 0.00, -0.00, -1.00, 333.9, 260.0)">a</text><text xml:space="preserve" font-family="Helvetica-Light" font-size="64.0" fill="#000000" transform="matrix(1.00, 0.00, -0.00, -1.00, 369.5, 260.0)">i</text><text xml:space="preserve" font-family="Helvetica-Light" font-size="64.0" fill="#000000" transform="matrix(1.00, 0.00, -0.00, -1.00, 383.7, 260.0)">m</text><text xml:space="preserve" font-family="Helvetica-Light" font-size="64.0" fill="#000000" transform="matrix(1.00, 0.00, -0.00, -1.00, 437.0, 260.0)">e</text><text xml:space="preserve" font-family="Helvetica-Light" font-size="64.0" fill="#000000" transform="matrix(1.00, 0.00, -0.00, -1.00, 472.6, 260.0)"> </text><text xml:space="preserve" font-family="Helvetica-Light" font-size="64.0" fill="#000000" transform="matrix(1.00, 0.00, -0.00, -1.00, 490.4, 260.0)">J</text><text xml:space="preserve" font-family="Helvetica-Light" font-size="64.0" fill="#000000" transform="matrix(1.00, 0.00, -0.00, -1.00, 522.4, 260.0)">i</text><text xml:space="preserve" font-family="Helvetica-Light" font-size="64.0" fill="#000000" transform="matrix(1.00, 0.00, -0.00, -1.00, 536.6, 260.0)">m</text><text xml:space="preserve" font-family="Helvetica-Light" font-size="64.0" fill="#000000" transform="matrix(1.00, 0.00, -0.00, -1.00, 589.9, 260.0)">é</text><text xml:space="preserve" font-family="Helvetica-Light" font-size="64.0" fill="#000000" transform="matrix(1.00, 0.00, -0.00, -1.00, 625.5, 260.0)">n</text><text xml:space="preserve" font-family="Helvetica-Light" font-size="64.0" fill="#000000" transform="matrix(1.00, 0.00, -0.00, -1.00, 661.1, 260.0)">e</text><text xml:space="preserve" font-family="Helvetica-Light" font-size="64.0" fill="#000000" transform="matrix(1.00, 0.00, -0.00, -1.00, 696.6, 260.0)">z</text><text xml:space="preserve" font-family="Helvetica-Light" font-size="64.0" fill="#000000" transform="matrix(1.00, 0.00, -0.00, -1.00, 728.6, 260.0)"> </text><text xml:space="preserve" font-family="Helvetica-Light" font-size="36.0" fill="#000000" transform="matrix(1.00, 0.00, -0.00, -1.00, 305.9, 210.5)">C</text><text xml:space="preserve" font-family="Helvetica-Light" font-size="36.0" fill="#000000" transform="matrix(1.00, 0.00, -0.00, -1.00, 331.9, 210.5)">o</text><text xml:space="preserve" font-family="Helvetica-Light" font-size="36.0" fill="#000000" transform="matrix(1.00, 0.00, -0.00, -1.00, 351.9, 210.5)">-</text><text xml:space="preserve" font-family="Helvetica-Light" font-size="36.0" fill="#000000" transform="matrix(1.00, 0.00, -0.00, -1.00, 363.9, 210.5)">c</text><text xml:space="preserve" font-family="Helvetica-Light" font-size="36.0" fill="#000000" transform="matrix(1.00, 0.00, -0.00, -1.00, 383.9, 210.5)">h</text><text xml:space="preserve" font-family="Helvetica-Light" font-size="36.0" fill="#000000" transform="matrix(1.00, 0.00, -0.00, -1.00, 403.9, 210.5)">a</text><text xml:space="preserve" font-family="Helvetica-Light" font-size="36.0" fill="#000000" transform="matrix(1.00, 0.00, -0.00, -1.00, 423.9, 210.5)">i</text><text xml:space="preserve" font-family="Helvetica-Light" font-size="36.0" fill="#000000" transform="matrix(1.00, 0.00, -0.00, -1.00, 431.9, 210.5)">r</text><text xml:space="preserve" font-family="Helvetica-Light" font-size="36.0" fill="#000000" transform="matrix(1.00, 0.00, -0.00, -1.00, 440.6, 210.5)">,</text><text xml:space="preserve" font-family="Helvetica-Light" font-size="36.0" fill="#000000" transform="matrix(1.00, 0.00, -0.00, -1.00, 450.6, 210.5)"> </text><text xml:space="preserve" font-family="Helvetica-Light" font-size="36.0" fill="#000000" transform="matrix(1.00, 0.00, -0.00, -1.00, 460.6, 210.5)">C</text><text xml:space="preserve" font-family="Helvetica-Light" font-size="36.0" fill="#000000" transform="matrix(1.00, 0.00, -0.00, -1.00, 486.6, 210.5)">o</text><text xml:space="preserve" font-family="Helvetica-Light" font-size="36.0" fill="#000000" transform="matrix(1.00, 0.00, -0.00, -1.00, 506.6, 210.5)">R</text><text xml:space="preserve" font-family="Helvetica-Light" font-size="36.0" fill="#000000" transform="matrix(1.00, 0.00, -0.00, -1.00, 530.6, 210.5)">E</text><text xml:space="preserve" font-family="Helvetica-Light" font-size="36.0" fill="#000000" transform="matrix(1.00, 0.00, -0.00, -1.00, 552.6, 210.5)"> </text><text xml:space="preserve" font-family="Helvetica-Light" font-size="36.0" fill="#000000" transform="matrix(1.00, 0.00, -0.00, -1.00, 562.6, 210.5)">W</text><text xml:space="preserve" font-family="Helvetica-Light" font-size="36.0" fill="#000000" transform="matrix(1.00, 0.00, -0.00, -1.00, 594.6, 210.5)">G</text><text xml:space="preserve" font-family="Helvetica-Light" font-size="36.0" fill="#000000" transform="matrix(1.00, 0.00, -0.00, -1.00, 622.6, 210.5)"> </text><text xml:space="preserve" font-family="Helvetica-Light" font-size="36.0" fill="#000000" transform="matrix(1.00, 0.00, -0.00, -1.00, 632.6, 210.5)">(</text><text xml:space="preserve" font-family="Helvetica-Light" font-size="36.0" fill="#000000" transform="matrix(1.00, 0.00, -0.00, -1.00, 644.6, 210.5)">I</text><text xml:space="preserve" font-family="Helvetica-Light" font-size="36.0" fill="#000000" transform="matrix(1.00, 0.00, -0.00, -1.00, 654.6, 210.5)">E</text><text xml:space="preserve" font-family="Helvetica-Light" font-size="36.0" fill="#000000" transform="matrix(1.00, 0.00, -0.00, -1.00, 676.6, 210.5)">T</text><text xml:space="preserve" font-family="Helvetica-Light" font-size="36.0" fill="#000000" transform="matrix(1.00, 0.00, -0.00, -1.00, 696.6, 210.5)">F</text><text xml:space="preserve" font-family="Helvetica-Light" font-size="36.0" fill="#000000" transform="matrix(1.00, 0.00, -0.00, -1.00, 716.7, 210.5)">)</text><text xml:space="preserve" font-family="Helvetica-Light" font-size="36.0" fill="#000000" transform="matrix(1.00, 0.00, -0.00, -1.00, 728.6, 210.5)"> </text><text xml:space="preserve" font-family="Helvetica-Light" font-size="36.0" fill="#000000" transform="matrix(1.00, 0.00, -0.00, -1.00, 204.6, 167.5)">C</text><text xml:space="preserve" font-family="Helvetica-Light" font-size="36.0" fill="#000000" transform="matrix(1.00, 0.00, -0.00, -1.00, 230.5, 167.5)">h</text><text xml:space="preserve" font-family="Helvetica-Light" font-size="36.0" fill="#000000" transform="matrix(1.00, 0.00, -0.00, -1.00, 250.6, 167.5)">a</text><text xml:space="preserve" font-family="Helvetica-Light" font-size="36.0" fill="#000000" transform="matrix(1.00, 0.00, -0.00, -1.00, 270.6, 167.5)">i</text><text xml:space="preserve" font-family="Helvetica-Light" font-size="36.0" fill="#000000" transform="matrix(1.00, 0.00, -0.00, -1.00, 278.6, 167.5)">r</text><text xml:space="preserve" font-family="Helvetica-Light" font-size="36.0" fill="#000000" transform="matrix(1.00, 0.00, -0.00, -1.00, 290.6, 167.5)"> </text><text xml:space="preserve" font-family="Helvetica-Light" font-size="36.0" fill="#000000" transform="matrix(1.00, 0.00, -0.00, -1.00, 300.6, 167.5)">I</text><text xml:space="preserve" font-family="Helvetica-Light" font-size="36.0" fill="#000000" transform="matrix(1.00, 0.00, -0.00, -1.00, 310.6, 167.5)">P</text><text xml:space="preserve" font-family="Helvetica-Light" font-size="36.0" fill="#000000" transform="matrix(1.00, 0.00, -0.00, -1.00, 332.6, 167.5)">S</text><text xml:space="preserve" font-family="Helvetica-Light" font-size="36.0" fill="#000000" transform="matrix(1.00, 0.00, -0.00, -1.00, 354.6, 167.5)">O</text><text xml:space="preserve" font-family="Helvetica-Light" font-size="36.0" fill="#000000" transform="matrix(1.00, 0.00, -0.00, -1.00, 382.6, 167.5)"> </text><text xml:space="preserve" font-family="Helvetica-Light" font-size="36.0" fill="#000000" transform="matrix(1.00, 0.00, -0.00, -1.00, 392.6, 167.5)">S</text><text xml:space="preserve" font-family="Helvetica-Light" font-size="36.0" fill="#000000" transform="matrix(1.00, 0.00, -0.00, -1.00, 414.6, 167.5)">e</text><text xml:space="preserve" font-family="Helvetica-Light" font-size="36.0" fill="#000000" transform="matrix(1.00, 0.00, -0.00, -1.00, 434.6, 167.5)">m</text><text xml:space="preserve" font-family="Helvetica-Light" font-size="36.0" fill="#000000" transform="matrix(1.00, 0.00, -0.00, -1.00, 464.6, 167.5)">a</text><text xml:space="preserve" font-family="Helvetica-Light" font-size="36.0" fill="#000000" transform="matrix(1.00, 0.00, -0.00, -1.00, 484.6, 167.5)">n</text><text xml:space="preserve" font-family="Helvetica-Light" font-size="36.0" fill="#000000" transform="matrix(1.00, 0.00, -0.00, -1.00, 504.6, 167.5)">t</text><text xml:space="preserve" font-family="Helvetica-Light" font-size="36.0" fill="#000000" transform="matrix(1.00, 0.00, -0.00, -1.00, 514.6, 167.5)">i</text><text xml:space="preserve" font-family="Helvetica-Light" font-size="36.0" fill="#000000" transform="matrix(1.00, 0.00, -0.00, -1.00, 522.6, 167.5)">c</text><text xml:space="preserve" font-family="Helvetica-Light" font-size="36.0" fill="#000000" transform="matrix(1.00, 0.00, -0.00, -1.00, 542.6, 167.5)"> </text><text xml:space="preserve" font-family="Helvetica-Light" font-size="36.0" fill="#000000" transform="matrix(1.00, 0.00, -0.00, -1.00, 552.6, 167.5)">W</text><text xml:space="preserve" font-family="Helvetica-Light" font-size="36.0" fill="#000000" transform="matrix(1.00, 0.00, -0.00, -1.00, 584.6, 167.5)">G</text><text xml:space="preserve" font-family="Helvetica-Light" font-size="36.0" fill="#000000" transform="matrix(1.00, 0.00, -0.00, -1.00, 612.7, 167.5)"> </text><text xml:space="preserve" font-family="Helvetica-Light" font-size="36.0" fill="#000000" transform="matrix(1.00, 0.00, -0.00, -1.00, 622.7, 167.5)">(</text><text xml:space="preserve" font-family="Helvetica-Light" font-size="36.0" fill="#000000" transform="matrix(1.00, 0.00, -0.00, -1.00, 634.6, 167.5)">I</text><text xml:space="preserve" font-family="Helvetica-Light" font-size="36.0" fill="#000000" transform="matrix(1.00, 0.00, -0.00, -1.00, 644.7, 167.5)">P</text><text xml:space="preserve" font-family="Helvetica-Light" font-size="36.0" fill="#000000" transform="matrix(1.00, 0.00, -0.00, -1.00, 666.7, 167.5)">S</text><text xml:space="preserve" font-family="Helvetica-Light" font-size="36.0" fill="#000000" transform="matrix(1.00, 0.00, -0.00, -1.00, 688.6, 167.5)">O</text><text xml:space="preserve" font-family="Helvetica-Light" font-size="36.0" fill="#000000" transform="matrix(1.00, 0.00, -0.00, -1.00, 716.7, 167.5)">)</text><text xml:space="preserve" font-family="Helvetica-Light" font-size="36.0" fill="#000000" transform="matrix(1.00, 0.00, -0.00, -1.00, 728.6, 167.5)"> </text><text xml:space="preserve" font-family="Helvetica-Light" font-size="36.0" fill="#000000" transform="matrix(1.00, 0.00, -0.00, -1.00, 427.2, 124.5)">E</text><text xml:space="preserve" font-family="Helvetica-Light" font-size="36.0" fill="#000000" transform="matrix(1.00, 0.00, -0.00, -1.00, 449.2, 124.5)">r</text><text xml:space="preserve" font-family="Helvetica-Light" font-size="36.0" fill="#000000" transform="matrix(1.00, 0.00, -0.00, -1.00, 461.2, 124.5)">i</text><text xml:space="preserve" font-family="Helvetica-Light" font-size="36.0" fill="#000000" transform="matrix(1.00, 0.00, -0.00, -1.00, 469.2, 124.5)">c</text><text xml:space="preserve" font-family="Helvetica-Light" font-size="36.0" fill="#000000" transform="matrix(1.00, 0.00, -0.00, -1.00, 489.2, 124.5)">s</text><text xml:space="preserve" font-family="Helvetica-Light" font-size="36.0" fill="#000000" transform="matrix(1.00, 0.00, -0.00, -1.00, 507.2, 124.5)">s</text><text xml:space="preserve" font-family="Helvetica-Light" font-size="36.0" fill="#000000" transform="matrix(1.00, 0.00, -0.00, -1.00, 525.2, 124.5)">o</text><text xml:space="preserve" font-family="Helvetica-Light" font-size="36.0" fill="#000000" transform="matrix(1.00, 0.00, -0.00, -1.00, 545.2, 124.5)">n</text><text xml:space="preserve" font-family="Helvetica-Light" font-size="36.0" fill="#000000" transform="matrix(1.00, 0.00, -0.00, -1.00, 565.2, 124.5)"> </text><text xml:space="preserve" font-family="Helvetica-Light" font-size="36.0" fill="#000000" transform="matrix(1.00, 0.00, -0.00, -1.00, 575.2, 124.5)">R</text><text xml:space="preserve" font-family="Helvetica-Light" font-size="36.0" fill="#000000" transform="matrix(1.00, 0.00, -0.00, -1.00, 599.2, 124.5)">e</text><text xml:space="preserve" font-family="Helvetica-Light" font-size="36.0" fill="#000000" transform="matrix(1.00, 0.00, -0.00, -1.00, 619.2, 124.5)">s</text><text xml:space="preserve" font-family="Helvetica-Light" font-size="36.0" fill="#000000" transform="matrix(1.00, 0.00, -0.00, -1.00, 637.2, 124.5)">e</text><text xml:space="preserve" font-family="Helvetica-Light" font-size="36.0" fill="#000000" transform="matrix(1.00, 0.00, -0.00, -1.00, 657.3, 124.5)">a</text><text xml:space="preserve" font-family="Helvetica-Light" font-size="36.0" fill="#000000" transform="matrix(1.00, 0.00, -0.00, -1.00, 677.3, 124.5)">r</text><text xml:space="preserve" font-family="Helvetica-Light" font-size="36.0" fill="#000000" transform="matrix(1.00, 0.00, -0.00, -1.00, 688.6, 124.5)">c</text><text xml:space="preserve" font-family="Helvetica-Light" font-size="36.0" fill="#000000" transform="matrix(1.00, 0.00, -0.00, -1.00, 708.6, 124.5)">h</text><text xml:space="preserve" font-family="Helvetica-Light" font-size="36.0" fill="#000000" transform="matrix(1.00, 0.00, -0.00, -1.00, 728.6, 124.5)"> </text><g><clipPath id="clip-3"><path d="M 826.0 120.0 L 961.0 120.0 L 961.0 239.0 L 826.0 239.0 Z M 826.0 120.0 "></path></clipPath><g clip-path="url(#clip-3)"><path d="M 874.5 207.4 C 870.3 205.9 865.8 208.1 864.2 212.1 C 862.8 216.4 865.0 220.9 869.0 222.4 C 912.8 238.5 912.8 238.5 912.8 238.5 C 917.0 240.0 921.5 238.0 923.0 233.7 C 924.5 229.7 922.5 225.2 918.3 223.7 L 874.5 207.4 Z M 874.5 207.4 " fill="#00285E"></path><path d="M 874.5 183.5 C 870.3 182.0 865.8 184.3 864.2 188.3 C 862.8 192.6 865.0 197.1 869.0 198.6 C 912.8 214.6 912.8 214.6 912.8 214.6 C 917.0 216.1 921.5 214.1 923.0 209.9 C 924.5 205.9 922.5 201.3 918.3 199.8 L 874.5 183.5 Z M 874.5 183.5 " fill="#00285E"></path><path d="M 874.5 159.7 C 870.3 158.2 865.8 160.4 864.2 164.4 C 862.8 168.7 865.0 173.2 869.0 174.7 C 912.8 190.8 912.8 190.8 912.8 190.8 C 917.0 192.3 921.5 190.3 923.0 186.0 C 924.5 182.0 922.5 177.5 918.3 176.0 L 874.5 159.7 Z M 874.5 159.7 " fill="#00285E"></path><path d="M 826.2 139.8 L 840.8 139.8 L 840.8 135.8 L 831.3 135.8 L 831.3 132.6 L 840.5 132.6 L 840.5 128.3 L 831.3 128.3 L 831.3 124.8 L 841.0 124.8 L 841.0 120.5 L 826.2 120.5 L 826.2 139.8 L 826.2 139.8 Z M 826.2 139.8 " fill="#00285E"></path><path d="M 863.8 139.8 L 869.0 139.8 L 869.0 120.5 L 863.8 120.5 L 863.8 139.8 L 863.8 139.8 Z M 863.8 139.8 " fill="#00285E"></path><path d="M 888.0 139.3 C 887.8 135.3 887.8 135.3 887.8 135.3 C 883.5 137.6 877.0 136.8 877.0 130.5 C 876.8 124.0 883.5 123.0 888.0 125.3 C 888.3 121.0 888.3 121.0 888.3 121.0 C 880.5 118.8 871.5 121.0 871.5 130.5 C 871.5 139.6 880.8 142.1 888.0 139.3 Z M 888.0 139.3 " fill="#00285E"></path><path d="M 903.5 139.6 C 903.3 135.6 903.3 135.6 903.3 135.6 C 900.5 137.1 895.5 137.1 895.5 134.8 C 895.5 131.3 904.5 133.8 904.5 126.5 C 904.5 119.5 896.0 119.3 890.5 121.0 C 890.8 125.3 890.8 125.3 890.8 125.3 C 894.2 123.8 899.3 123.3 899.3 126.0 C 899.3 129.3 890.2 127.5 890.2 134.3 C 890.2 140.1 897.3 141.6 903.5 139.6 Z M 903.5 139.6 " fill="#00285E"></path><path d="M 919.3 139.6 C 919.0 135.6 919.0 135.6 919.0 135.6 C 916.3 137.1 911.3 137.1 911.3 134.8 C 911.3 131.3 920.2 133.8 920.2 126.5 C 920.2 119.5 911.8 119.3 906.3 121.0 C 906.5 125.3 906.5 125.3 906.5 125.3 C 910.0 123.8 915.0 123.3 915.0 126.0 C 915.0 129.3 906.0 127.5 906.0 134.3 C 906.0 140.1 913.0 141.6 919.3 139.6 Z M 919.3 139.6 " fill="#00285E"></path><path d="M 943.5 139.8 L 950.0 139.8 L 956.3 127.5 L 956.3 139.8 L 961.3 139.8 L 961.3 120.5 L 955.0 120.5 L 948.3 133.3 L 948.3 120.5 L 943.5 120.5 L 943.5 139.8 L 943.5 139.8 Z M 943.5 139.8 " fill="#00285E"></path><path d="M 931.3 140.3 C 936.8 140.3 941.0 137.3 941.0 130.3 C 941.0 123.5 936.8 120.2 931.3 120.2 C 926.0 120.2 921.8 123.5 921.8 130.3 C 921.8 137.3 926.0 140.3 931.3 140.3 Z M 927.3 130.3 C 927.3 127.3 928.5 124.0 931.3 124.0 C 934.3 124.0 935.5 127.3 935.5 130.3 C 935.5 132.8 934.3 136.6 931.3 136.6 C 928.5 136.6 927.3 133.3 927.3 130.3 Z M 927.3 130.3 " fill="#00285E"></path><path d="M 849.8 131.8 C 852.5 131.8 852.5 131.8 852.5 131.8 C 853.8 131.8 855.0 132.6 855.0 134.1 C 855.0 135.3 854.0 136.1 852.5 136.1 C 849.8 136.1 849.8 136.1 849.8 136.1 C 849.8 131.8 849.8 131.8 849.8 131.8 Z M 844.8 139.8 C 854.0 139.8 854.0 139.8 854.0 139.8 C 856.7 139.8 860.2 138.8 860.2 134.8 C 860.2 132.3 859.0 130.8 856.7 130.0 C 857.0 130.0 858.0 129.5 858.5 128.3 C 858.5 128.0 861.3 120.7 861.3 120.5 C 855.8 120.5 855.8 120.5 855.8 120.5 C 853.8 126.5 853.8 126.5 853.8 126.5 C 853.5 127.3 852.7 127.8 852.0 127.8 C 851.0 127.8 849.8 128.0 849.8 127.8 C 849.8 120.5 849.8 120.5 849.8 120.5 C 844.8 120.5 844.8 120.5 844.8 120.5 C 844.8 139.8 844.8 139.8 844.8 139.8 Z M 844.8 139.8 " fill="#00285E"></path></g></g></g></svg>